<?xml version="1.0" encoding="utf-8" standalone="no"?>
<!DOCTYPE svg PUBLIC "-//W3C//DTD SVG 1.1//EN"
  "http://www.w3.org/Graphics/SVG/1.1/DTD/svg11.dtd">
<svg xmlns:xlink="http://www.w3.org/1999/xlink" width="896.20775pt" height="454.892534pt" viewBox="0 0 896.20775 454.892534" xmlns="http://www.w3.org/2000/svg" version="1.1">
 <metadata>
  <rdf:RDF xmlns:dc="http://purl.org/dc/elements/1.1/" xmlns:cc="http://creativecommons.org/ns#" xmlns:rdf="http://www.w3.org/1999/02/22-rdf-syntax-ns#">
   <cc:Work>
    <dc:type rdf:resource="http://purl.org/dc/dcmitype/StillImage"/>
    <dc:date>2026-07-23T11:29:10.311499</dc:date>
    <dc:format>image/svg+xml</dc:format>
    <dc:creator>
     <cc:Agent>
      <dc:title>Matplotlib v3.10.6, https://matplotlib.org/</dc:title>
     </cc:Agent>
    </dc:creator>
   </cc:Work>
  </rdf:RDF>
 </metadata>
 <defs>
  <style type="text/css">*{stroke-linejoin: round; stroke-linecap: butt}</style>
 </defs>
 <g id="figure_1">
  <g id="patch_1">
   <path d="M 0 454.892534 
L 896.20775 454.892534 
L 896.20775 0 
L 0 0 
z
" style="fill: #ffffff"/>
  </g>
  <g id="axes_1">
   <g id="patch_2">
    <path d="M 63.02375 381.24 
L 883.24775 381.24 
L 883.24775 82.152 
L 63.02375 82.152 
z
" style="fill: #ffffff"/>
   </g>
   <g id="matplotlib.axis_1">
    <g id="xtick_1">
     <g id="line2d_1">
      <defs>
       <path id="m064dd205f0" d="M 0 0 
L 0 3.5 
" style="stroke: #6b7280; stroke-width: 0.8"/>
      </defs>
      <g>
       <use xlink:href="#m064dd205f0" x="99.130542" y="381.24" style="fill: #6b7280; stroke: #6b7280; stroke-width: 0.8"/>
      </g>
     </g>
     <g id="text_1">
      <!-- 2023 -->
      <g style="fill: #6b7280" transform="translate(85.133042 396.598281) scale(0.11 -0.11)">
       <defs>
        <path id="DejaVuSans-32" d="M 1228 531 
L 3431 531 
L 3431 0 
L 469 0 
L 469 531 
Q 828 903 1448 1529 
Q 2069 2156 2228 2338 
Q 2531 2678 2651 2914 
Q 2772 3150 2772 3378 
Q 2772 3750 2511 3984 
Q 2250 4219 1831 4219 
Q 1534 4219 1204 4116 
Q 875 4013 500 3803 
L 500 4441 
Q 881 4594 1212 4672 
Q 1544 4750 1819 4750 
Q 2544 4750 2975 4387 
Q 3406 4025 3406 3419 
Q 3406 3131 3298 2873 
Q 3191 2616 2906 2266 
Q 2828 2175 2409 1742 
Q 1991 1309 1228 531 
z
" transform="scale(0.015625)"/>
        <path id="DejaVuSans-30" d="M 2034 4250 
Q 1547 4250 1301 3770 
Q 1056 3291 1056 2328 
Q 1056 1369 1301 889 
Q 1547 409 2034 409 
Q 2525 409 2770 889 
Q 3016 1369 3016 2328 
Q 3016 3291 2770 3770 
Q 2525 4250 2034 4250 
z
M 2034 4750 
Q 2819 4750 3233 4129 
Q 3647 3509 3647 2328 
Q 3647 1150 3233 529 
Q 2819 -91 2034 -91 
Q 1250 -91 836 529 
Q 422 1150 422 2328 
Q 422 3509 836 4129 
Q 1250 4750 2034 4750 
z
" transform="scale(0.015625)"/>
        <path id="DejaVuSans-33" d="M 2597 2516 
Q 3050 2419 3304 2112 
Q 3559 1806 3559 1356 
Q 3559 666 3084 287 
Q 2609 -91 1734 -91 
Q 1441 -91 1130 -33 
Q 819 25 488 141 
L 488 750 
Q 750 597 1062 519 
Q 1375 441 1716 441 
Q 2309 441 2620 675 
Q 2931 909 2931 1356 
Q 2931 1769 2642 2001 
Q 2353 2234 1838 2234 
L 1294 2234 
L 1294 2753 
L 1863 2753 
Q 2328 2753 2575 2939 
Q 2822 3125 2822 3475 
Q 2822 3834 2567 4026 
Q 2313 4219 1838 4219 
Q 1578 4219 1281 4162 
Q 984 4106 628 3988 
L 628 4550 
Q 988 4650 1302 4700 
Q 1616 4750 1894 4750 
Q 2613 4750 3031 4423 
Q 3450 4097 3450 3541 
Q 3450 3153 3228 2886 
Q 3006 2619 2597 2516 
z
" transform="scale(0.015625)"/>
       </defs>
       <use xlink:href="#DejaVuSans-32"/>
       <use xlink:href="#DejaVuSans-30" transform="translate(63.623047 0)"/>
       <use xlink:href="#DejaVuSans-32" transform="translate(127.246094 0)"/>
       <use xlink:href="#DejaVuSans-33" transform="translate(190.869141 0)"/>
      </g>
     </g>
    </g>
    <g id="xtick_2">
     <g id="line2d_2">
      <g>
       <use xlink:href="#m064dd205f0" x="313.771896" y="381.24" style="fill: #6b7280; stroke: #6b7280; stroke-width: 0.8"/>
      </g>
     </g>
     <g id="text_2">
      <!-- 2024 -->
      <g style="fill: #6b7280" transform="translate(299.774396 396.598281) scale(0.11 -0.11)">
       <defs>
        <path id="DejaVuSans-34" d="M 2419 4116 
L 825 1625 
L 2419 1625 
L 2419 4116 
z
M 2253 4666 
L 3047 4666 
L 3047 1625 
L 3713 1625 
L 3713 1100 
L 3047 1100 
L 3047 0 
L 2419 0 
L 2419 1100 
L 313 1100 
L 313 1709 
L 2253 4666 
z
" transform="scale(0.015625)"/>
       </defs>
       <use xlink:href="#DejaVuSans-32"/>
       <use xlink:href="#DejaVuSans-30" transform="translate(63.623047 0)"/>
       <use xlink:href="#DejaVuSans-32" transform="translate(127.246094 0)"/>
       <use xlink:href="#DejaVuSans-34" transform="translate(190.869141 0)"/>
      </g>
     </g>
    </g>
    <g id="xtick_3">
     <g id="line2d_3">
      <g>
       <use xlink:href="#m064dd205f0" x="529.001308" y="381.24" style="fill: #6b7280; stroke: #6b7280; stroke-width: 0.8"/>
      </g>
     </g>
     <g id="text_3">
      <!-- 2025 -->
      <g style="fill: #6b7280" transform="translate(515.003808 396.598281) scale(0.11 -0.11)">
       <defs>
        <path id="DejaVuSans-35" d="M 691 4666 
L 3169 4666 
L 3169 4134 
L 1269 4134 
L 1269 2991 
Q 1406 3038 1543 3061 
Q 1681 3084 1819 3084 
Q 2600 3084 3056 2656 
Q 3513 2228 3513 1497 
Q 3513 744 3044 326 
Q 2575 -91 1722 -91 
Q 1428 -91 1123 -41 
Q 819 9 494 109 
L 494 744 
Q 775 591 1075 516 
Q 1375 441 1709 441 
Q 2250 441 2565 725 
Q 2881 1009 2881 1497 
Q 2881 1984 2565 2268 
Q 2250 2553 1709 2553 
Q 1456 2553 1204 2497 
Q 953 2441 691 2322 
L 691 4666 
z
" transform="scale(0.015625)"/>
       </defs>
       <use xlink:href="#DejaVuSans-32"/>
       <use xlink:href="#DejaVuSans-30" transform="translate(63.623047 0)"/>
       <use xlink:href="#DejaVuSans-32" transform="translate(127.246094 0)"/>
       <use xlink:href="#DejaVuSans-35" transform="translate(190.869141 0)"/>
      </g>
     </g>
    </g>
    <g id="xtick_4">
     <g id="line2d_4">
      <g>
       <use xlink:href="#m064dd205f0" x="743.642661" y="381.24" style="fill: #6b7280; stroke: #6b7280; stroke-width: 0.8"/>
      </g>
     </g>
     <g id="text_4">
      <!-- 2026 -->
      <g style="fill: #6b7280" transform="translate(729.645161 396.598281) scale(0.11 -0.11)">
       <defs>
        <path id="DejaVuSans-36" d="M 2113 2584 
Q 1688 2584 1439 2293 
Q 1191 2003 1191 1497 
Q 1191 994 1439 701 
Q 1688 409 2113 409 
Q 2538 409 2786 701 
Q 3034 994 3034 1497 
Q 3034 2003 2786 2293 
Q 2538 2584 2113 2584 
z
M 3366 4563 
L 3366 3988 
Q 3128 4100 2886 4159 
Q 2644 4219 2406 4219 
Q 1781 4219 1451 3797 
Q 1122 3375 1075 2522 
Q 1259 2794 1537 2939 
Q 1816 3084 2150 3084 
Q 2853 3084 3261 2657 
Q 3669 2231 3669 1497 
Q 3669 778 3244 343 
Q 2819 -91 2113 -91 
Q 1303 -91 875 529 
Q 447 1150 447 2328 
Q 447 3434 972 4092 
Q 1497 4750 2381 4750 
Q 2619 4750 2861 4703 
Q 3103 4656 3366 4563 
z
" transform="scale(0.015625)"/>
       </defs>
       <use xlink:href="#DejaVuSans-32"/>
       <use xlink:href="#DejaVuSans-30" transform="translate(63.623047 0)"/>
       <use xlink:href="#DejaVuSans-32" transform="translate(127.246094 0)"/>
       <use xlink:href="#DejaVuSans-36" transform="translate(190.869141 0)"/>
      </g>
     </g>
    </g>
   </g>
   <g id="matplotlib.axis_2">
    <g id="ytick_1">
     <g id="line2d_5">
      <path d="M 63.02375 348.490575 
L 883.24775 348.490575 
" clip-path="url(#pa8dbd72d6e)" style="fill: none; stroke: #d7dee5; stroke-opacity: 0.8; stroke-width: 0.7; stroke-linecap: square"/>
     </g>
     <g id="line2d_6">
      <defs>
       <path id="m2573b3b75c" d="M 0 0 
L -3.5 0 
" style="stroke: #6b7280; stroke-width: 0.8"/>
      </defs>
      <g>
       <use xlink:href="#m2573b3b75c" x="63.02375" y="348.490575" style="fill: #6b7280; stroke: #6b7280; stroke-width: 0.8"/>
      </g>
     </g>
     <g id="text_5">
      <!-- -10% -->
      <g style="fill: #6b7280" transform="translate(27.605937 352.669715) scale(0.11 -0.11)">
       <defs>
        <path id="DejaVuSans-2d" d="M 313 2009 
L 1997 2009 
L 1997 1497 
L 313 1497 
L 313 2009 
z
" transform="scale(0.015625)"/>
        <path id="DejaVuSans-31" d="M 794 531 
L 1825 531 
L 1825 4091 
L 703 3866 
L 703 4441 
L 1819 4666 
L 2450 4666 
L 2450 531 
L 3481 531 
L 3481 0 
L 794 0 
L 794 531 
z
" transform="scale(0.015625)"/>
        <path id="DejaVuSans-25" d="M 4653 2053 
Q 4381 2053 4226 1822 
Q 4072 1591 4072 1178 
Q 4072 772 4226 539 
Q 4381 306 4653 306 
Q 4919 306 5073 539 
Q 5228 772 5228 1178 
Q 5228 1588 5073 1820 
Q 4919 2053 4653 2053 
z
M 4653 2450 
Q 5147 2450 5437 2106 
Q 5728 1763 5728 1178 
Q 5728 594 5436 251 
Q 5144 -91 4653 -91 
Q 4153 -91 3862 251 
Q 3572 594 3572 1178 
Q 3572 1766 3864 2108 
Q 4156 2450 4653 2450 
z
M 1428 4353 
Q 1159 4353 1004 4120 
Q 850 3888 850 3481 
Q 850 3069 1003 2837 
Q 1156 2606 1428 2606 
Q 1700 2606 1854 2837 
Q 2009 3069 2009 3481 
Q 2009 3884 1853 4118 
Q 1697 4353 1428 4353 
z
M 4250 4750 
L 4750 4750 
L 1831 -91 
L 1331 -91 
L 4250 4750 
z
M 1428 4750 
Q 1922 4750 2215 4408 
Q 2509 4066 2509 3481 
Q 2509 2891 2217 2550 
Q 1925 2209 1428 2209 
Q 931 2209 642 2551 
Q 353 2894 353 3481 
Q 353 4063 643 4406 
Q 934 4750 1428 4750 
z
" transform="scale(0.015625)"/>
       </defs>
       <use xlink:href="#DejaVuSans-2d"/>
       <use xlink:href="#DejaVuSans-31" transform="translate(36.083984 0)"/>
       <use xlink:href="#DejaVuSans-30" transform="translate(99.707031 0)"/>
       <use xlink:href="#DejaVuSans-25" transform="translate(163.330078 0)"/>
      </g>
     </g>
    </g>
    <g id="ytick_2">
     <g id="line2d_7">
      <path d="M 63.02375 314.856697 
L 883.24775 314.856697 
" clip-path="url(#pa8dbd72d6e)" style="fill: none; stroke: #d7dee5; stroke-opacity: 0.8; stroke-width: 0.7; stroke-linecap: square"/>
     </g>
     <g id="line2d_8">
      <g>
       <use xlink:href="#m2573b3b75c" x="63.02375" y="314.856697" style="fill: #6b7280; stroke: #6b7280; stroke-width: 0.8"/>
      </g>
     </g>
     <g id="text_6">
      <!-- -5% -->
      <g style="fill: #6b7280" transform="translate(34.604687 319.035838) scale(0.11 -0.11)">
       <use xlink:href="#DejaVuSans-2d"/>
       <use xlink:href="#DejaVuSans-35" transform="translate(36.083984 0)"/>
       <use xlink:href="#DejaVuSans-25" transform="translate(99.707031 0)"/>
      </g>
     </g>
    </g>
    <g id="ytick_3">
     <g id="line2d_9">
      <path d="M 63.02375 281.22282 
L 883.24775 281.22282 
" clip-path="url(#pa8dbd72d6e)" style="fill: none; stroke: #d7dee5; stroke-opacity: 0.8; stroke-width: 0.7; stroke-linecap: square"/>
     </g>
     <g id="line2d_10">
      <g>
       <use xlink:href="#m2573b3b75c" x="63.02375" y="281.22282" style="fill: #6b7280; stroke: #6b7280; stroke-width: 0.8"/>
      </g>
     </g>
     <g id="text_7">
      <!-- 0% -->
      <g style="fill: #6b7280" transform="translate(38.573281 285.401961) scale(0.11 -0.11)">
       <use xlink:href="#DejaVuSans-30"/>
       <use xlink:href="#DejaVuSans-25" transform="translate(63.623047 0)"/>
      </g>
     </g>
    </g>
    <g id="ytick_4">
     <g id="line2d_11">
      <path d="M 63.02375 247.588943 
L 883.24775 247.588943 
" clip-path="url(#pa8dbd72d6e)" style="fill: none; stroke: #d7dee5; stroke-opacity: 0.8; stroke-width: 0.7; stroke-linecap: square"/>
     </g>
     <g id="line2d_12">
      <g>
       <use xlink:href="#m2573b3b75c" x="63.02375" y="247.588943" style="fill: #6b7280; stroke: #6b7280; stroke-width: 0.8"/>
      </g>
     </g>
     <g id="text_8">
      <!-- 5% -->
      <g style="fill: #6b7280" transform="translate(38.573281 251.768083) scale(0.11 -0.11)">
       <use xlink:href="#DejaVuSans-35"/>
       <use xlink:href="#DejaVuSans-25" transform="translate(63.623047 0)"/>
      </g>
     </g>
    </g>
    <g id="ytick_5">
     <g id="line2d_13">
      <path d="M 63.02375 213.955065 
L 883.24775 213.955065 
" clip-path="url(#pa8dbd72d6e)" style="fill: none; stroke: #d7dee5; stroke-opacity: 0.8; stroke-width: 0.7; stroke-linecap: square"/>
     </g>
     <g id="line2d_14">
      <g>
       <use xlink:href="#m2573b3b75c" x="63.02375" y="213.955065" style="fill: #6b7280; stroke: #6b7280; stroke-width: 0.8"/>
      </g>
     </g>
     <g id="text_9">
      <!-- 10% -->
      <g style="fill: #6b7280" transform="translate(31.574531 218.134206) scale(0.11 -0.11)">
       <use xlink:href="#DejaVuSans-31"/>
       <use xlink:href="#DejaVuSans-30" transform="translate(63.623047 0)"/>
       <use xlink:href="#DejaVuSans-25" transform="translate(127.246094 0)"/>
      </g>
     </g>
    </g>
    <g id="ytick_6">
     <g id="line2d_15">
      <path d="M 63.02375 180.321188 
L 883.24775 180.321188 
" clip-path="url(#pa8dbd72d6e)" style="fill: none; stroke: #d7dee5; stroke-opacity: 0.8; stroke-width: 0.7; stroke-linecap: square"/>
     </g>
     <g id="line2d_16">
      <g>
       <use xlink:href="#m2573b3b75c" x="63.02375" y="180.321188" style="fill: #6b7280; stroke: #6b7280; stroke-width: 0.8"/>
      </g>
     </g>
     <g id="text_10">
      <!-- 15% -->
      <g style="fill: #6b7280" transform="translate(31.574531 184.500329) scale(0.11 -0.11)">
       <use xlink:href="#DejaVuSans-31"/>
       <use xlink:href="#DejaVuSans-35" transform="translate(63.623047 0)"/>
       <use xlink:href="#DejaVuSans-25" transform="translate(127.246094 0)"/>
      </g>
     </g>
    </g>
    <g id="ytick_7">
     <g id="line2d_17">
      <path d="M 63.02375 146.687311 
L 883.24775 146.687311 
" clip-path="url(#pa8dbd72d6e)" style="fill: none; stroke: #d7dee5; stroke-opacity: 0.8; stroke-width: 0.7; stroke-linecap: square"/>
     </g>
     <g id="line2d_18">
      <g>
       <use xlink:href="#m2573b3b75c" x="63.02375" y="146.687311" style="fill: #6b7280; stroke: #6b7280; stroke-width: 0.8"/>
      </g>
     </g>
     <g id="text_11">
      <!-- 20% -->
      <g style="fill: #6b7280" transform="translate(31.574531 150.866451) scale(0.11 -0.11)">
       <use xlink:href="#DejaVuSans-32"/>
       <use xlink:href="#DejaVuSans-30" transform="translate(63.623047 0)"/>
       <use xlink:href="#DejaVuSans-25" transform="translate(127.246094 0)"/>
      </g>
     </g>
    </g>
    <g id="ytick_8">
     <g id="line2d_19">
      <path d="M 63.02375 113.053434 
L 883.24775 113.053434 
" clip-path="url(#pa8dbd72d6e)" style="fill: none; stroke: #d7dee5; stroke-opacity: 0.8; stroke-width: 0.7; stroke-linecap: square"/>
     </g>
     <g id="line2d_20">
      <g>
       <use xlink:href="#m2573b3b75c" x="63.02375" y="113.053434" style="fill: #6b7280; stroke: #6b7280; stroke-width: 0.8"/>
      </g>
     </g>
     <g id="text_12">
      <!-- 25% -->
      <g style="fill: #6b7280" transform="translate(31.574531 117.232574) scale(0.11 -0.11)">
       <use xlink:href="#DejaVuSans-32"/>
       <use xlink:href="#DejaVuSans-35" transform="translate(63.623047 0)"/>
       <use xlink:href="#DejaVuSans-25" transform="translate(127.246094 0)"/>
      </g>
     </g>
    </g>
    <g id="text_13">
     <!-- 20-session long–short alpha -->
     <g style="fill: #17212b" transform="translate(21.318281 308.533578) rotate(-90) scale(0.11 -0.11)">
      <defs>
       <path id="DejaVuSans-73" d="M 2834 3397 
L 2834 2853 
Q 2591 2978 2328 3040 
Q 2066 3103 1784 3103 
Q 1356 3103 1142 2972 
Q 928 2841 928 2578 
Q 928 2378 1081 2264 
Q 1234 2150 1697 2047 
L 1894 2003 
Q 2506 1872 2764 1633 
Q 3022 1394 3022 966 
Q 3022 478 2636 193 
Q 2250 -91 1575 -91 
Q 1294 -91 989 -36 
Q 684 19 347 128 
L 347 722 
Q 666 556 975 473 
Q 1284 391 1588 391 
Q 1994 391 2212 530 
Q 2431 669 2431 922 
Q 2431 1156 2273 1281 
Q 2116 1406 1581 1522 
L 1381 1569 
Q 847 1681 609 1914 
Q 372 2147 372 2553 
Q 372 3047 722 3315 
Q 1072 3584 1716 3584 
Q 2034 3584 2315 3537 
Q 2597 3491 2834 3397 
z
" transform="scale(0.015625)"/>
       <path id="DejaVuSans-65" d="M 3597 1894 
L 3597 1613 
L 953 1613 
Q 991 1019 1311 708 
Q 1631 397 2203 397 
Q 2534 397 2845 478 
Q 3156 559 3463 722 
L 3463 178 
Q 3153 47 2828 -22 
Q 2503 -91 2169 -91 
Q 1331 -91 842 396 
Q 353 884 353 1716 
Q 353 2575 817 3079 
Q 1281 3584 2069 3584 
Q 2775 3584 3186 3129 
Q 3597 2675 3597 1894 
z
M 3022 2063 
Q 3016 2534 2758 2815 
Q 2500 3097 2075 3097 
Q 1594 3097 1305 2825 
Q 1016 2553 972 2059 
L 3022 2063 
z
" transform="scale(0.015625)"/>
       <path id="DejaVuSans-69" d="M 603 3500 
L 1178 3500 
L 1178 0 
L 603 0 
L 603 3500 
z
M 603 4863 
L 1178 4863 
L 1178 4134 
L 603 4134 
L 603 4863 
z
" transform="scale(0.015625)"/>
       <path id="DejaVuSans-6f" d="M 1959 3097 
Q 1497 3097 1228 2736 
Q 959 2375 959 1747 
Q 959 1119 1226 758 
Q 1494 397 1959 397 
Q 2419 397 2687 759 
Q 2956 1122 2956 1747 
Q 2956 2369 2687 2733 
Q 2419 3097 1959 3097 
z
M 1959 3584 
Q 2709 3584 3137 3096 
Q 3566 2609 3566 1747 
Q 3566 888 3137 398 
Q 2709 -91 1959 -91 
Q 1206 -91 779 398 
Q 353 888 353 1747 
Q 353 2609 779 3096 
Q 1206 3584 1959 3584 
z
" transform="scale(0.015625)"/>
       <path id="DejaVuSans-6e" d="M 3513 2113 
L 3513 0 
L 2938 0 
L 2938 2094 
Q 2938 2591 2744 2837 
Q 2550 3084 2163 3084 
Q 1697 3084 1428 2787 
Q 1159 2491 1159 1978 
L 1159 0 
L 581 0 
L 581 3500 
L 1159 3500 
L 1159 2956 
Q 1366 3272 1645 3428 
Q 1925 3584 2291 3584 
Q 2894 3584 3203 3211 
Q 3513 2838 3513 2113 
z
" transform="scale(0.015625)"/>
       <path id="DejaVuSans-20" transform="scale(0.015625)"/>
       <path id="DejaVuSans-6c" d="M 603 4863 
L 1178 4863 
L 1178 0 
L 603 0 
L 603 4863 
z
" transform="scale(0.015625)"/>
       <path id="DejaVuSans-67" d="M 2906 1791 
Q 2906 2416 2648 2759 
Q 2391 3103 1925 3103 
Q 1463 3103 1205 2759 
Q 947 2416 947 1791 
Q 947 1169 1205 825 
Q 1463 481 1925 481 
Q 2391 481 2648 825 
Q 2906 1169 2906 1791 
z
M 3481 434 
Q 3481 -459 3084 -895 
Q 2688 -1331 1869 -1331 
Q 1566 -1331 1297 -1286 
Q 1028 -1241 775 -1147 
L 775 -588 
Q 1028 -725 1275 -790 
Q 1522 -856 1778 -856 
Q 2344 -856 2625 -561 
Q 2906 -266 2906 331 
L 2906 616 
Q 2728 306 2450 153 
Q 2172 0 1784 0 
Q 1141 0 747 490 
Q 353 981 353 1791 
Q 353 2603 747 3093 
Q 1141 3584 1784 3584 
Q 2172 3584 2450 3431 
Q 2728 3278 2906 2969 
L 2906 3500 
L 3481 3500 
L 3481 434 
z
" transform="scale(0.015625)"/>
       <path id="DejaVuSans-2013" d="M 313 1978 
L 2888 1978 
L 2888 1528 
L 313 1528 
L 313 1978 
z
" transform="scale(0.015625)"/>
       <path id="DejaVuSans-68" d="M 3513 2113 
L 3513 0 
L 2938 0 
L 2938 2094 
Q 2938 2591 2744 2837 
Q 2550 3084 2163 3084 
Q 1697 3084 1428 2787 
Q 1159 2491 1159 1978 
L 1159 0 
L 581 0 
L 581 4863 
L 1159 4863 
L 1159 2956 
Q 1366 3272 1645 3428 
Q 1925 3584 2291 3584 
Q 2894 3584 3203 3211 
Q 3513 2838 3513 2113 
z
" transform="scale(0.015625)"/>
       <path id="DejaVuSans-72" d="M 2631 2963 
Q 2534 3019 2420 3045 
Q 2306 3072 2169 3072 
Q 1681 3072 1420 2755 
Q 1159 2438 1159 1844 
L 1159 0 
L 581 0 
L 581 3500 
L 1159 3500 
L 1159 2956 
Q 1341 3275 1631 3429 
Q 1922 3584 2338 3584 
Q 2397 3584 2469 3576 
Q 2541 3569 2628 3553 
L 2631 2963 
z
" transform="scale(0.015625)"/>
       <path id="DejaVuSans-74" d="M 1172 4494 
L 1172 3500 
L 2356 3500 
L 2356 3053 
L 1172 3053 
L 1172 1153 
Q 1172 725 1289 603 
Q 1406 481 1766 481 
L 2356 481 
L 2356 0 
L 1766 0 
Q 1100 0 847 248 
Q 594 497 594 1153 
L 594 3053 
L 172 3053 
L 172 3500 
L 594 3500 
L 594 4494 
L 1172 4494 
z
" transform="scale(0.015625)"/>
       <path id="DejaVuSans-61" d="M 2194 1759 
Q 1497 1759 1228 1600 
Q 959 1441 959 1056 
Q 959 750 1161 570 
Q 1363 391 1709 391 
Q 2188 391 2477 730 
Q 2766 1069 2766 1631 
L 2766 1759 
L 2194 1759 
z
M 3341 1997 
L 3341 0 
L 2766 0 
L 2766 531 
Q 2569 213 2275 61 
Q 1981 -91 1556 -91 
Q 1019 -91 701 211 
Q 384 513 384 1019 
Q 384 1609 779 1909 
Q 1175 2209 1959 2209 
L 2766 2209 
L 2766 2266 
Q 2766 2663 2505 2880 
Q 2244 3097 1772 3097 
Q 1472 3097 1187 3025 
Q 903 2953 641 2809 
L 641 3341 
Q 956 3463 1253 3523 
Q 1550 3584 1831 3584 
Q 2591 3584 2966 3190 
Q 3341 2797 3341 1997 
z
" transform="scale(0.015625)"/>
       <path id="DejaVuSans-70" d="M 1159 525 
L 1159 -1331 
L 581 -1331 
L 581 3500 
L 1159 3500 
L 1159 2969 
Q 1341 3281 1617 3432 
Q 1894 3584 2278 3584 
Q 2916 3584 3314 3078 
Q 3713 2572 3713 1747 
Q 3713 922 3314 415 
Q 2916 -91 2278 -91 
Q 1894 -91 1617 61 
Q 1341 213 1159 525 
z
M 3116 1747 
Q 3116 2381 2855 2742 
Q 2594 3103 2138 3103 
Q 1681 3103 1420 2742 
Q 1159 2381 1159 1747 
Q 1159 1113 1420 752 
Q 1681 391 2138 391 
Q 2594 391 2855 752 
Q 3116 1113 3116 1747 
z
" transform="scale(0.015625)"/>
      </defs>
      <use xlink:href="#DejaVuSans-32"/>
      <use xlink:href="#DejaVuSans-30" transform="translate(63.623047 0)"/>
      <use xlink:href="#DejaVuSans-2d" transform="translate(127.246094 0)"/>
      <use xlink:href="#DejaVuSans-73" transform="translate(163.330078 0)"/>
      <use xlink:href="#DejaVuSans-65" transform="translate(215.429688 0)"/>
      <use xlink:href="#DejaVuSans-73" transform="translate(276.953125 0)"/>
      <use xlink:href="#DejaVuSans-73" transform="translate(329.052734 0)"/>
      <use xlink:href="#DejaVuSans-69" transform="translate(381.152344 0)"/>
      <use xlink:href="#DejaVuSans-6f" transform="translate(408.935547 0)"/>
      <use xlink:href="#DejaVuSans-6e" transform="translate(470.117188 0)"/>
      <use xlink:href="#DejaVuSans-20" transform="translate(533.496094 0)"/>
      <use xlink:href="#DejaVuSans-6c" transform="translate(565.283203 0)"/>
      <use xlink:href="#DejaVuSans-6f" transform="translate(593.066406 0)"/>
      <use xlink:href="#DejaVuSans-6e" transform="translate(654.248047 0)"/>
      <use xlink:href="#DejaVuSans-67" transform="translate(717.626953 0)"/>
      <use xlink:href="#DejaVuSans-2013" transform="translate(781.103516 0)"/>
      <use xlink:href="#DejaVuSans-73" transform="translate(831.103516 0)"/>
      <use xlink:href="#DejaVuSans-68" transform="translate(883.203125 0)"/>
      <use xlink:href="#DejaVuSans-6f" transform="translate(946.582031 0)"/>
      <use xlink:href="#DejaVuSans-72" transform="translate(1007.763672 0)"/>
      <use xlink:href="#DejaVuSans-74" transform="translate(1048.876953 0)"/>
      <use xlink:href="#DejaVuSans-20" transform="translate(1088.085938 0)"/>
      <use xlink:href="#DejaVuSans-61" transform="translate(1119.873047 0)"/>
      <use xlink:href="#DejaVuSans-6c" transform="translate(1181.152344 0)"/>
      <use xlink:href="#DejaVuSans-70" transform="translate(1208.935547 0)"/>
      <use xlink:href="#DejaVuSans-68" transform="translate(1272.412109 0)"/>
      <use xlink:href="#DejaVuSans-61" transform="translate(1335.791016 0)"/>
     </g>
    </g>
   </g>
   <g id="line2d_21">
    <path d="M 100.306659 223.548244 
L 100.894718 193.151767 
L 101.482776 176.968162 
L 102.070835 144.397242 
L 103.83501 172.913559 
L 104.423069 189.420554 
L 105.011127 187.510371 
L 105.599186 243.315812 
L 106.187244 229.558482 
L 108.539478 227.340498 
L 109.127537 244.221375 
L 109.715595 236.894299 
L 110.303654 212.503898 
L 112.067829 235.948626 
L 112.655888 255.973411 
L 113.832005 236.293886 
L 114.420063 243.261836 
L 116.184239 246.753101 
L 116.772297 251.123844 
L 117.360356 259.394515 
L 118.536473 242.459657 
L 120.888707 254.485051 
L 121.476765 258.95078 
L 122.064824 254.717994 
L 122.652882 258.959271 
L 124.417058 261.452934 
L 125.005116 254.638714 
L 125.593175 254.227468 
L 126.181233 260.977974 
L 126.769292 249.205406 
L 129.121526 243.626609 
L 129.709584 251.787964 
L 130.297643 257.379117 
L 130.885701 244.984162 
L 132.649877 227.766408 
L 133.237935 247.747934 
L 133.825994 259.085804 
L 134.414052 254.32832 
L 135.002111 257.816697 
L 136.766286 252.902284 
L 137.354345 256.738516 
L 137.942403 251.131734 
L 138.530462 259.144943 
L 139.11852 272.020254 
L 140.882696 267.870761 
L 141.470754 279.786979 
L 142.058813 273.270507 
L 142.646871 270.087981 
L 143.23493 286.635494 
L 144.999105 275.708816 
L 145.587164 288.756322 
L 146.175222 310.892366 
L 146.763281 312.6298 
L 147.351339 301.218371 
L 149.115515 297.904888 
L 149.703573 319.063508 
L 150.87969 297.45607 
L 151.467749 298.598525 
L 153.231924 302.775124 
L 153.819983 321.895383 
L 154.408041 296.458808 
L 154.9961 298.094647 
L 157.348334 286.532273 
L 157.936392 271.957482 
L 158.524451 295.915999 
L 159.112509 276.914316 
L 159.700568 279.696408 
L 161.464743 282.993357 
L 162.052802 275.698337 
L 162.64086 266.965129 
L 163.228919 230.928631 
L 163.816977 239.321258 
L 165.581153 244.942352 
L 166.169211 212.352463 
L 166.75727 196.82553 
L 167.345328 211.94801 
L 167.933387 178.726996 
L 169.697562 162.632429 
L 170.285621 155.787572 
L 170.873679 175.062757 
L 171.461738 164.939126 
L 172.049796 174.197901 
L 173.813972 194.76586 
L 174.40203 189.581971 
L 174.990089 223.174717 
L 175.578147 223.585395 
L 176.166206 230.177232 
L 177.930381 196.314767 
L 178.51844 235.878865 
L 179.106498 221.917843 
L 179.694557 232.127932 
L 180.282616 229.915572 
L 182.046791 234.659405 
L 182.63485 248.345365 
L 183.222908 241.178683 
L 184.399025 274.726594 
L 186.751259 273.759111 
L 187.339318 275.559386 
L 187.927376 270.649844 
L 188.515435 276.246923 
L 190.27961 288.051885 
L 191.455727 278.62996 
L 192.043786 273.268374 
L 192.631844 264.301208 
L 194.39602 278.157633 
L 194.984078 277.770244 
L 195.572137 268.119629 
L 196.160195 279.904264 
L 196.748254 280.021303 
L 199.100488 269.750473 
L 199.688546 279.334445 
L 200.276605 295.897007 
L 200.864663 278.738981 
L 202.628839 273.320752 
L 203.216897 277.585148 
L 203.804956 272.63016 
L 204.393014 261.940671 
L 204.981073 270.108899 
L 206.745248 283.334555 
L 207.921365 273.519198 
L 209.097482 279.864217 
L 210.861658 291.668985 
L 211.449716 298.407115 
L 212.037775 296.077637 
L 212.625833 287.539051 
L 213.213892 289.532979 
L 214.978067 273.825133 
L 216.154184 293.431673 
L 216.742243 285.307869 
L 217.330301 295.425488 
L 219.094477 295.571467 
L 219.682535 287.023903 
L 220.270594 288.579896 
L 220.858652 288.574444 
L 221.446711 293.899166 
L 223.210886 280.757517 
L 223.798945 296.079315 
L 224.387003 298.39879 
L 224.975062 295.04755 
L 225.56312 270.837931 
L 227.327296 274.406758 
L 227.915354 273.118587 
L 228.503413 260.996293 
L 229.091471 271.02036 
L 229.67953 271.426122 
L 231.443705 260.730044 
L 232.031764 287.948617 
L 232.619822 275.014991 
L 233.795939 268.697161 
L 235.560115 279.399573 
L 236.148173 294.269089 
L 236.736232 300.549823 
L 237.32429 301.338942 
L 237.912349 289.278679 
L 239.676524 304.276347 
L 240.852641 280.107423 
L 241.4407 293.776184 
L 242.028758 295.637607 
L 244.380992 290.667441 
L 244.969051 291.40485 
L 245.557109 274.916993 
L 246.145168 277.647797 
L 247.909343 277.837469 
L 248.497402 282.767532 
L 249.08546 270.271021 
L 249.673519 279.335967 
L 250.261577 277.241468 
L 252.025753 267.703695 
L 252.613811 280.028168 
L 253.20187 282.316607 
L 253.789928 274.850525 
L 254.377987 269.522656 
L 256.142162 279.855943 
L 256.730221 274.833652 
L 257.318279 268.233142 
L 258.494396 302.109369 
L 260.258572 306.030051 
L 261.434689 318.659673 
L 262.610806 308.880553 
L 264.374981 273.09991 
L 264.96304 281.477069 
L 265.551098 278.503731 
L 266.139157 267.300605 
L 266.727215 250.496669 
L 268.491391 237.438002 
L 269.079449 232.131694 
L 269.667508 232.306915 
L 270.255566 230.982525 
L 270.843625 214.056315 
L 272.6078 215.207581 
L 273.195859 214.40875 
L 273.783917 215.159836 
L 274.371976 200.995193 
L 274.960034 200.304792 
L 276.72421 212.164914 
L 277.900327 200.367695 
L 278.488386 217.300252 
L 279.076444 207.565804 
L 280.84062 230.941391 
L 281.428678 234.70244 
L 282.016737 257.658088 
L 282.604795 247.76017 
L 283.192854 226.964654 
L 284.957029 241.869624 
L 285.545088 226.806287 
L 286.133146 267.168703 
L 286.721205 265.406158 
L 287.309263 262.307808 
L 289.073439 261.147958 
L 289.661497 264.54471 
L 290.249556 261.213649 
L 291.425673 263.233254 
L 293.189848 262.833555 
L 293.777907 257.355127 
L 294.365965 261.655788 
L 294.954024 270.306734 
L 295.542082 263.998236 
L 297.306258 292.902733 
L 297.894316 277.768622 
L 298.482375 281.354844 
L 299.070433 278.296776 
L 299.658492 267.861765 
L 301.422667 279.970479 
L 302.010726 274.379328 
L 302.598784 270.310623 
L 303.186843 263.126143 
L 303.774901 248.093264 
L 305.539077 242.732886 
L 306.127135 249.763761 
L 306.715194 244.43933 
L 307.303252 245.557585 
L 307.891311 238.143038 
L 310.243545 238.003939 
L 311.419662 231.751344 
L 312.00772 232.284645 
L 314.359954 242.660021 
L 314.948013 214.833875 
L 315.536071 219.267183 
L 316.12413 220.10387 
L 317.888305 219.988559 
L 318.476364 220.18334 
L 319.064422 230.672483 
L 319.652481 210.379811 
L 320.240539 234.8845 
L 322.592773 213.460328 
L 323.180832 243.739956 
L 323.76889 216.255215 
L 324.356949 214.432559 
L 326.121124 251.95289 
L 326.709183 267.11029 
L 327.297241 276.759643 
L 327.8853 235.601446 
L 328.473358 237.310782 
L 330.237534 235.01599 
L 330.825592 265.326121 
L 331.413651 248.197541 
L 332.001709 250.598796 
L 332.589768 227.64593 
L 334.353943 250.759968 
L 334.942002 246.382822 
L 335.53006 264.652035 
L 336.118119 254.187733 
L 336.706177 284.468464 
L 338.470353 274.85442 
L 339.058411 273.083158 
L 339.64647 283.941184 
L 340.234528 305.127675 
L 340.822587 297.137692 
L 343.174821 287.251113 
L 343.762879 281.30827 
L 344.350938 291.768433 
L 344.938996 291.504699 
L 346.703172 281.65172 
L 347.29123 289.387139 
L 347.879289 286.037404 
L 348.467347 279.734412 
L 349.055406 296.383734 
L 350.819581 295.130082 
L 351.40764 301.035802 
L 352.583757 294.800904 
L 353.171815 306.399969 
L 354.935991 292.196798 
L 355.524049 300.585404 
L 356.112108 298.112895 
L 356.700166 286.480327 
L 357.288225 291.265182 
L 359.0524 302.261091 
L 359.640459 284.17102 
L 360.228517 302.596778 
L 360.816576 307.658126 
L 361.404634 323.662767 
L 363.16881 317.58686 
L 363.756868 316.619514 
L 364.344927 310.189248 
L 364.932985 316.310251 
L 367.285219 314.46368 
L 367.873278 306.596227 
L 368.461336 301.967017 
L 369.049395 310.092237 
L 369.637453 306.019122 
L 371.401629 295.651339 
L 371.989687 299.027692 
L 372.577746 304.477387 
L 373.165804 306.814847 
L 373.753863 307.959432 
L 375.518039 304.362803 
L 376.106097 296.663561 
L 376.694156 283.041905 
L 377.282214 266.717559 
L 377.870273 266.40935 
L 379.634448 239.502719 
L 380.222507 237.489431 
L 380.810565 264.079965 
L 381.398624 245.584375 
L 381.986682 246.121885 
L 383.750858 253.548909 
L 384.338916 246.909015 
L 384.926975 244.926985 
L 385.515033 278.351971 
L 386.103092 290.209315 
L 387.867267 290.108878 
L 388.455326 300.77283 
L 389.043384 270.061545 
L 389.631443 287.529557 
L 390.219501 270.565574 
L 391.983677 264.530063 
L 393.159794 269.992659 
L 393.747852 270.688088 
L 394.335911 263.640079 
L 396.100086 259.426063 
L 396.688145 268.430788 
L 397.864262 273.957436 
L 398.45232 281.880668 
L 400.804554 278.219463 
L 401.392613 264.95283 
L 401.980671 269.438381 
L 402.56873 255.194975 
L 404.920964 236.06441 
L 405.509022 228.097676 
L 406.097081 247.958898 
L 406.685139 248.440124 
L 408.449315 242.724668 
L 409.037373 254.085864 
L 409.625432 256.787138 
L 410.21349 266.904468 
L 410.801549 262.189244 
L 412.565724 260.300069 
L 413.153783 280.211619 
L 414.3299 282.178093 
L 414.917958 282.409358 
L 417.270192 273.263852 
L 417.858251 287.435559 
L 418.446309 287.963781 
L 419.034368 296.517305 
L 420.798543 306.196212 
L 421.386602 278.655719 
L 421.97466 283.444116 
L 423.150777 301.204806 
L 424.914953 316.130636 
L 425.503011 306.510664 
L 426.09107 310.809685 
L 427.267187 337.499084 
L 429.031362 328.979402 
L 429.619421 342.182203 
L 430.207479 302.861812 
L 430.795538 311.074377 
L 431.383596 287.355932 
L 433.147772 305.294692 
L 433.73583 296.164393 
L 434.323889 296.814395 
L 434.911947 272.349507 
L 435.500006 291.45346 
L 437.264181 279.689377 
L 437.85224 280.586726 
L 438.440298 282.494588 
L 439.028357 291.29177 
L 439.616415 227.343964 
L 441.380591 174.320147 
L 441.968649 271.16702 
L 442.556708 276.086491 
L 443.144766 278.406997 
L 443.732825 302.44522 
L 445.497 293.399488 
L 446.085059 308.68866 
L 446.673117 304.100918 
L 447.261176 307.264761 
L 447.849234 312.426351 
L 450.201468 309.270838 
L 450.789527 310.353536 
L 451.377585 298.814016 
L 451.965644 292.829591 
L 453.729819 289.220651 
L 454.317878 271.873176 
L 454.905936 278.446297 
L 455.493995 255.735382 
L 456.082053 268.493489 
L 458.434287 266.522449 
L 459.610404 219.955684 
L 460.198463 227.104228 
L 461.962638 200.593793 
L 462.550697 206.23539 
L 463.138755 188.389298 
L 463.726814 214.886423 
L 464.314872 211.548726 
L 466.079048 194.574516 
L 466.667106 205.133152 
L 467.255165 241.804501 
L 467.843223 263.609005 
L 468.431282 266.042027 
L 470.195457 275.296263 
L 470.783516 271.441387 
L 471.371574 270.842333 
L 471.959633 297.537562 
L 472.547691 286.309068 
L 474.899926 259.207885 
L 475.487984 234.632514 
L 476.076043 253.755558 
L 476.664101 293.217535 
L 478.428277 279.948435 
L 479.016335 287.318364 
L 479.604394 299.932266 
L 480.192452 277.96577 
L 480.780511 281.358285 
L 482.544686 295.21402 
L 483.132745 289.386247 
L 483.720803 275.205812 
L 484.308862 276.081187 
L 484.89692 289.870523 
L 486.661096 302.289354 
L 487.249154 310.616997 
L 487.837213 307.553055 
L 489.01333 291.562452 
L 490.777505 299.860673 
L 491.365564 283.853047 
L 491.953622 301.584325 
L 492.541681 315.763113 
L 493.129739 290.884675 
L 494.893915 269.645461 
L 495.481973 266.562523 
L 496.070032 278.766671 
L 496.65809 283.23549 
L 497.246149 271.467721 
L 499.010324 255.132965 
L 499.598383 265.769082 
L 500.186441 256.004391 
L 500.7745 258.432426 
L 501.362558 249.570432 
L 503.126734 230.116096 
L 503.714792 236.923851 
L 504.302851 241.148686 
L 504.890909 248.512199 
L 505.478968 245.178342 
L 507.243143 251.724882 
L 507.831202 259.945338 
L 508.41926 247.469941 
L 511.359553 259.755744 
L 511.947611 268.397153 
L 512.53567 281.229056 
L 513.123728 277.455963 
L 513.711787 253.964067 
L 515.475962 249.949126 
L 516.064021 259.623277 
L 516.652079 249.895617 
L 517.240138 256.977284 
L 517.828196 259.284024 
L 519.592372 254.628354 
L 520.18043 257.828371 
L 520.768489 245.471554 
L 521.356547 245.255408 
L 521.944606 220.973445 
L 523.708781 235.974629 
L 524.29684 242.166282 
L 525.472957 267.429921 
L 526.061015 273.43066 
L 527.825191 269.775795 
L 528.413249 266.33029 
L 529.589366 246.79328 
L 530.177425 264.68476 
L 531.9416 268.308097 
L 532.529659 265.43422 
L 533.117717 255.144844 
L 534.293834 244.005614 
L 536.05801 223.24182 
L 536.646068 243.853306 
L 537.234127 221.28347 
L 537.822185 248.474176 
L 538.410244 247.306012 
L 540.762478 235.006097 
L 541.938595 272.351468 
L 542.526653 284.298615 
L 544.290829 276.919031 
L 544.878887 281.712558 
L 545.466946 271.728675 
L 546.055004 292.260608 
L 546.643063 288.380036 
L 548.407238 324.8556 
L 549.583355 292.657016 
L 550.759472 322.375282 
L 552.523648 360.406661 
L 553.111706 353.104634 
L 553.699765 350.583534 
L 554.287823 355.965529 
L 554.875882 338.941102 
L 557.228116 318.884451 
L 557.816174 337.563868 
L 558.404233 334.026793 
L 558.992291 342.709574 
L 560.756467 319.498439 
L 561.344525 290.73587 
L 561.932584 298.063147 
L 562.520642 326.294596 
L 563.108701 309.340176 
L 564.872876 339.696342 
L 565.460935 311.744107 
L 566.048993 330.441454 
L 566.637052 300.551588 
L 567.22511 345.490581 
L 568.989286 325.952186 
L 569.577344 291.871005 
L 570.165403 335.739659 
L 570.753461 277.238219 
L 571.34152 304.866897 
L 573.105696 287.71534 
L 573.693754 293.173187 
L 574.281813 292.761279 
L 574.869871 307.006027 
L 575.45793 318.100788 
L 577.222105 349.26825 
L 578.398222 334.899545 
L 578.986281 274.110042 
L 579.574339 250.310683 
L 581.338515 223.159278 
L 581.926573 227.709234 
L 582.514632 228.56768 
L 583.10269 214.342253 
L 583.690749 122.510519 
L 585.454924 103.613493 
L 586.042983 205.214258 
L 586.631041 180.12706 
L 587.2191 206.846275 
L 587.807158 193.132171 
L 589.571334 183.729995 
L 590.159392 125.503678 
L 590.747451 95.746909 
L 591.335509 106.969724 
L 593.687743 106.708975 
L 594.275802 96.132479 
L 594.86386 158.247071 
L 595.451919 166.546013 
L 596.039977 183.335506 
L 597.804153 219.474563 
L 598.98027 193.176793 
L 599.568328 208.714885 
L 600.156387 232.876116 
L 601.920562 231.994623 
L 602.508621 232.393517 
L 603.096679 226.16409 
L 603.684738 235.855839 
L 604.272796 235.812107 
L 606.62503 261.598058 
L 607.213089 278.708906 
L 607.801147 278.417721 
L 608.389206 289.927457 
L 610.74144 254.896533 
L 611.329498 259.420773 
L 611.917557 273.861514 
L 612.505615 267.665027 
L 614.857849 247.644145 
L 615.445908 259.126096 
L 616.033966 260.7553 
L 616.622025 248.829315 
L 618.3862 233.801978 
L 620.150376 283.657148 
L 620.738434 283.434654 
L 622.50261 284.717498 
L 623.090668 289.077911 
L 623.678727 285.996279 
L 624.266785 295.338562 
L 624.854844 272.112159 
L 626.619019 265.757478 
L 627.207078 272.3879 
L 627.795136 248.570789 
L 628.971253 257.534051 
L 630.735429 236.655355 
L 631.323487 279.489314 
L 631.911546 293.492018 
L 632.499604 302.668917 
L 633.087663 297.324833 
L 634.851838 295.954739 
L 635.439897 290.808412 
L 636.027955 271.39939 
L 636.616014 264.311217 
L 638.968248 284.30165 
L 639.556306 287.811875 
L 640.144365 284.820148 
L 640.732423 264.311619 
L 641.320482 271.329936 
L 643.084657 266.567182 
L 643.672716 273.326586 
L 644.260774 277.08667 
L 645.436891 282.302704 
L 647.201067 281.316361 
L 647.789125 280.341934 
L 648.377184 269.833966 
L 648.965242 267.917429 
L 649.553301 281.249129 
L 651.317476 288.397491 
L 651.905535 295.009437 
L 652.493593 283.106772 
L 653.081652 314.523363 
L 653.66971 285.237145 
L 655.433886 282.240092 
L 656.021944 280.580864 
L 656.610003 271.022315 
L 657.198061 267.590147 
L 657.78612 254.889506 
L 659.550295 252.168928 
L 660.138354 241.104615 
L 660.726412 261.696704 
L 661.314471 251.923789 
L 661.902529 240.007112 
L 663.666705 226.417799 
L 664.254763 247.973286 
L 664.842822 224.783958 
L 666.018939 202.597099 
L 667.783114 208.719524 
L 668.371173 239.059054 
L 668.959232 252.158449 
L 669.54729 253.01563 
L 670.135349 255.834516 
L 672.487583 213.497536 
L 673.075641 235.444252 
L 673.6637 228.171354 
L 674.251758 241.885389 
L 676.015934 254.74163 
L 676.603992 251.450149 
L 677.192051 258.898003 
L 677.780109 249.752018 
L 678.368168 236.278784 
L 680.132343 256.962528 
L 680.720402 241.978504 
L 681.30846 249.807169 
L 682.484577 276.766482 
L 684.248753 279.000054 
L 684.836811 275.856512 
L 685.42487 258.575849 
L 686.012928 254.173546 
L 686.600987 240.083157 
L 688.365162 256.292533 
L 688.953221 238.682435 
L 689.541279 253.893377 
L 690.129338 254.052715 
L 690.717396 270.549882 
L 692.481572 271.146686 
L 693.06963 280.057736 
L 693.657689 274.523169 
L 694.245747 283.234603 
L 694.833806 286.722119 
L 696.597981 292.829958 
L 697.18604 298.058419 
L 697.774098 285.430598 
L 698.362157 296.668583 
L 698.950215 278.7947 
L 700.714391 299.666683 
L 701.302449 297.7606 
L 701.890508 315.30045 
L 702.478566 308.33118 
L 703.066625 326.709636 
L 704.8308 328.40421 
L 705.418859 334.004926 
L 706.006917 333.463567 
L 706.594976 330.821574 
L 707.183034 338.70964 
L 708.94721 332.717581 
L 709.535268 320.992681 
L 710.123327 305.763637 
L 710.711385 297.828315 
L 711.299444 269.663661 
L 713.063619 275.918497 
L 713.651678 269.232707 
L 714.239736 274.894112 
L 714.827795 276.634383 
L 715.415853 258.057107 
L 717.180029 276.548351 
L 717.768087 250.854337 
L 718.356146 264.437595 
L 718.944204 266.700539 
L 719.532263 229.584483 
L 721.296438 246.23453 
L 721.884497 245.798602 
L 722.472555 260.018982 
L 723.648672 265.710496 
L 725.412848 266.827223 
L 727.177023 293.404496 
L 727.765082 292.23495 
L 729.529257 284.293229 
L 730.117316 289.795183 
L 730.705374 305.259988 
L 731.293433 306.070167 
L 731.881491 301.86641 
L 733.645667 297.313948 
L 734.233725 291.047343 
L 734.821784 288.229414 
L 735.409842 299.02037 
L 735.997901 337.118416 
L 737.762076 332.076056 
L 738.350135 325.386941 
L 738.938193 323.080116 
L 740.11431 324.465998 
L 741.878486 333.293736 
L 742.466544 319.214429 
L 743.054603 331.441321 
L 744.23072 318.520954 
L 745.994895 350.348957 
L 746.582954 345.131457 
L 747.171012 356.195571 
L 748.347129 343.71075 
L 750.111305 335.52815 
L 750.699363 341.748576 
L 751.287422 341.390139 
L 751.87548 346.0038 
L 752.463539 360.605657 
L 754.815773 337.247513 
L 755.403831 364.276162 
L 755.99189 362.857442 
L 756.579948 353.780184 
L 758.344124 357.591534 
L 758.932182 367.645091 
L 759.520241 363.358857 
L 760.108299 343.802781 
L 760.696358 357.41865 
L 762.460533 322.02572 
L 763.048592 320.995098 
L 763.63665 284.4535 
L 764.224709 234.220677 
L 764.812767 249.960242 
L 766.576943 248.473311 
L 767.165002 270.597744 
L 767.75306 262.575102 
L 768.341119 266.228435 
L 768.929177 248.123675 
L 771.281411 251.101591 
L 771.86947 254.569999 
L 772.457528 263.185362 
L 773.045587 243.511735 
L 774.809762 241.360459 
L 775.397821 220.471907 
L 775.985879 240.027751 
L 776.573938 273.896339 
L 777.161996 258.933088 
L 778.926172 267.766297 
L 779.51423 274.391635 
L 780.102289 286.023516 
L 780.690347 257.67384 
L 781.278406 251.015837 
L 783.042581 256.746707 
L 783.63064 282.037827 
L 784.218698 264.640354 
L 784.806757 273.87682 
L 785.394815 260.626626 
L 787.158991 228.415921 
L 787.747049 221.379223 
L 788.335108 232.381955 
L 789.511225 208.421277 
L 791.2754 199.173776 
L 791.863459 215.54718 
L 792.451517 221.910438 
L 793.039576 230.541029 
L 793.627634 183.258557 
L 795.979868 152.380171 
L 796.567927 220.989075 
L 797.155985 189.851302 
L 799.508219 206.042175 
L 800.096278 197.563144 
L 800.684336 267.638773 
L 801.860453 197.250639 
L 803.624629 171.927317 
L 804.212687 190.194844 
L 804.800746 196.82116 
L 805.388804 212.265554 
L 805.976863 208.327349 
L 807.741038 213.217679 
L 808.329097 198.488077 
L 808.917155 237.311809 
L 809.505214 227.14115 
L 810.093272 202.391406 
L 811.857448 215.343116 
L 812.445506 201.082731 
L 813.033565 190.958945 
L 813.621623 189.625766 
L 814.209682 137.756189 
L 815.973857 179.879159 
L 816.561916 147.588779 
L 817.149974 204.706341 
L 817.738033 184.670526 
L 818.326091 238.670446 
L 820.090267 225.450585 
L 820.678325 229.836414 
L 821.266384 255.933138 
L 821.854442 224.47086 
L 822.442501 220.580906 
L 824.794735 200.507314 
L 825.382793 199.262876 
L 825.970852 217.765219 
L 826.55891 241.083832 
L 828.911144 275.868893 
L 829.499203 267.859736 
L 830.087261 274.515741 
L 830.67532 312.810676 
L 832.439495 312.29887 
L 833.027554 301.393535 
L 833.615612 321.214438 
L 834.203671 326.692962 
L 834.791729 307.661161 
L 836.555905 309.714535 
L 837.143963 295.487828 
L 837.732022 246.613406 
L 838.32008 233.187286 
L 838.908139 275.534879 
L 840.672314 289.433674 
L 841.260373 280.423125 
L 841.848431 315.394198 
L 842.43649 292.762875 
L 844.788724 281.718968 
L 845.376782 244.712837 
L 845.964841 273.896634 
L 845.964841 273.896634 
" clip-path="url(#pa8dbd72d6e)" style="fill: none; stroke: #d7dee5; stroke-opacity: 0.65; stroke-width: 0.8; stroke-linecap: square"/>
   </g>
   <g id="line2d_22">
    <path d="M 125.005116 231.474663 
L 126.769292 233.595477 
L 129.121526 233.89051 
L 130.885701 235.308881 
L 132.649877 235.110395 
L 133.237935 235.434434 
L 134.414052 236.472124 
L 135.002111 236.980328 
L 136.766286 237.350606 
L 137.354345 237.79124 
L 137.942403 238.087695 
L 138.530462 238.545462 
L 139.11852 239.257691 
L 140.882696 239.853797 
L 142.058813 241.320795 
L 142.646871 241.884857 
L 143.23493 242.745446 
L 144.999105 243.367397 
L 145.587164 244.207932 
L 146.763281 246.620545 
L 147.351339 247.578402 
L 149.115515 248.4461 
L 150.291632 250.615719 
L 151.467749 252.145124 
L 153.231924 252.948775 
L 154.408041 256.149635 
L 154.9961 258.072278 
L 157.348334 260.328389 
L 159.112509 265.010029 
L 159.700568 265.587499 
L 161.464743 266.435672 
L 162.052802 267.203257 
L 162.64086 267.564268 
L 163.228919 267.469575 
L 163.816977 267.895248 
L 165.581153 268.038005 
L 166.75727 266.577692 
L 167.345328 266.191249 
L 167.933387 265.166887 
L 169.697562 263.831638 
L 170.873679 260.979764 
L 171.461738 259.612896 
L 172.049796 258.529376 
L 173.813972 257.623662 
L 174.40203 256.593454 
L 175.578147 255.531412 
L 176.166206 255.074554 
L 179.106498 253.229989 
L 179.694557 252.772051 
L 180.282616 252.465864 
L 182.63485 252.268883 
L 183.222908 252.011733 
L 183.810967 252.205041 
L 184.399025 252.950441 
L 186.751259 253.363317 
L 188.515435 254.176417 
L 190.27961 254.734347 
L 191.455727 255.598409 
L 192.043786 255.82259 
L 192.631844 255.700066 
L 194.984078 255.831338 
L 195.572137 255.749578 
L 196.160195 255.905392 
L 196.748254 255.800404 
L 199.100488 255.705828 
L 200.276605 255.318252 
L 200.864663 254.780303 
L 202.628839 254.337484 
L 203.216897 254.014948 
L 204.393014 252.546718 
L 204.981073 252.112636 
L 206.745248 251.87035 
L 207.921365 251.405971 
L 208.509424 250.685081 
L 209.097482 250.421675 
L 210.861658 250.31968 
L 211.449716 250.50817 
L 212.037775 250.891029 
L 212.625833 250.758062 
L 213.213892 250.958358 
L 215.566126 250.868588 
L 216.742243 251.441224 
L 217.330301 252.464984 
L 219.094477 253.357844 
L 219.682535 254.025805 
L 220.858652 256.692097 
L 221.446711 257.992909 
L 223.210886 259.612441 
L 224.975062 265.898836 
L 225.56312 267.579769 
L 227.327296 269.170386 
L 228.503413 271.547641 
L 229.67953 273.066472 
L 231.443705 273.551437 
L 232.031764 275.005943 
L 232.619822 275.627151 
L 233.207881 276.41607 
L 233.795939 276.996534 
L 235.560115 277.781995 
L 237.32429 280.511747 
L 237.912349 281.021527 
L 239.676524 281.49057 
L 240.264583 281.777666 
L 240.852641 281.849857 
L 242.028758 282.52473 
L 244.380992 282.566247 
L 244.969051 282.688925 
L 245.557109 282.629989 
L 248.497402 282.987538 
L 249.08546 282.868502 
L 249.673519 283.046539 
L 252.025753 282.808755 
L 252.613811 282.971893 
L 253.20187 283.019229 
L 253.789928 282.685158 
L 254.377987 282.538867 
L 256.730221 282.598926 
L 257.318279 282.529132 
L 257.906338 282.87848 
L 258.494396 283.386424 
L 260.258572 283.74667 
L 262.022747 285.567251 
L 262.610806 285.84045 
L 265.551098 285.063576 
L 266.727215 284.340388 
L 268.491391 283.613863 
L 270.255566 280.776658 
L 270.843625 279.482767 
L 272.6078 278.342825 
L 273.783917 276.000194 
L 274.960034 273.2485 
L 276.72421 271.916526 
L 277.900327 268.953864 
L 278.488386 268.10406 
L 279.076444 267.043092 
L 280.84062 266.373613 
L 281.428678 265.95625 
L 282.016737 265.74415 
L 282.604795 265.3685 
L 283.192854 264.832542 
L 284.957029 264.101129 
L 285.545088 263.335912 
L 286.721205 263.213022 
L 287.309263 262.941724 
L 289.073439 262.415992 
L 290.249556 261.207573 
L 293.189848 260.136331 
L 293.777907 259.588855 
L 294.954024 258.923441 
L 295.542082 258.421229 
L 297.306258 258.45671 
L 297.894316 258.240261 
L 299.070433 258.352751 
L 299.658492 258.194406 
L 302.598784 258.07196 
L 305.539077 256.944642 
L 306.715194 255.945213 
L 307.303252 255.564815 
L 307.891311 254.902706 
L 310.243545 254.318107 
L 310.831603 253.784826 
L 311.419662 252.956282 
L 312.00772 251.847953 
L 314.359954 250.842079 
L 316.12413 246.233279 
L 317.888305 244.822295 
L 319.064422 243.175927 
L 319.652481 242.094595 
L 320.240539 241.580054 
L 322.592773 240.992176 
L 323.180832 241.092207 
L 324.356949 240.556479 
L 326.121124 240.889342 
L 327.297241 242.708485 
L 328.473358 243.39648 
L 330.237534 243.936492 
L 330.825592 244.968577 
L 332.589768 246.674588 
L 334.353943 247.205695 
L 335.53006 248.356927 
L 336.706177 249.091779 
L 338.470353 249.521847 
L 339.64647 250.921689 
L 340.234528 252.164886 
L 340.822587 252.640584 
L 343.174821 252.987329 
L 343.762879 253.288924 
L 344.938996 254.2029 
L 346.703172 254.527313 
L 349.055406 256.217233 
L 350.819581 256.611255 
L 351.40764 257.199153 
L 351.995698 257.281241 
L 352.583757 257.551595 
L 353.171815 257.949137 
L 354.935991 258.169772 
L 355.524049 258.689195 
L 357.288225 259.501861 
L 359.0524 260.123051 
L 359.640459 260.695714 
L 360.816576 262.564892 
L 361.404634 263.822407 
L 363.16881 264.965729 
L 364.932985 268.653596 
L 367.285219 269.96649 
L 369.049395 273.599457 
L 369.637453 274.976472 
L 371.401629 276.175638 
L 373.165804 279.976837 
L 373.753863 281.52572 
L 375.518039 282.628551 
L 376.106097 283.949237 
L 376.694156 284.573077 
L 377.870273 286.199095 
L 379.634448 286.001473 
L 380.222507 285.531301 
L 380.810565 285.330036 
L 381.986682 285.628354 
L 383.750858 285.922528 
L 384.338916 285.630193 
L 384.926975 285.578279 
L 385.515033 286.018806 
L 386.103092 287.011875 
L 387.867267 287.636461 
L 388.455326 288.499795 
L 389.043384 288.58566 
L 389.631443 289.114895 
L 390.219501 288.894214 
L 392.571735 288.636958 
L 393.159794 288.415553 
L 394.335911 287.337185 
L 396.688145 286.691113 
L 397.864262 286.088208 
L 398.45232 286.091842 
L 400.804554 285.914577 
L 401.392613 285.579901 
L 401.980671 285.416472 
L 402.56873 284.762682 
L 404.332905 283.891854 
L 406.097081 281.006297 
L 406.685139 280.0863 
L 408.449315 279.301028 
L 409.625432 277.906976 
L 410.21349 277.596248 
L 410.801549 277.134725 
L 412.565724 276.468677 
L 413.153783 276.405829 
L 414.3299 276.081723 
L 414.917958 275.680949 
L 416.682134 274.914976 
L 417.270192 274.211436 
L 418.446309 273.395413 
L 419.034368 273.08124 
L 420.798543 272.95001 
L 421.386602 272.50651 
L 421.97466 272.212496 
L 423.150777 272.071425 
L 424.914953 272.231926 
L 426.09107 272.591312 
L 426.679128 272.922163 
L 427.267187 273.409215 
L 429.031362 273.742865 
L 429.619421 274.343173 
L 430.207479 274.441558 
L 431.383596 275.214111 
L 433.147772 275.831339 
L 434.323889 277.672396 
L 434.911947 277.803659 
L 435.500006 278.53174 
L 437.264181 279.064557 
L 438.440298 280.058579 
L 439.028357 280.794528 
L 439.616415 279.984877 
L 441.380591 278.145367 
L 442.556708 277.452856 
L 445.497 278.184523 
L 446.673117 279.471176 
L 447.849234 280.725308 
L 449.61341 281.460523 
L 450.789527 282.917151 
L 451.965644 283.652921 
L 453.729819 283.769428 
L 454.317878 283.668694 
L 454.905936 283.882876 
L 455.493995 283.665368 
L 456.082053 283.876455 
L 459.022346 284.407404 
L 459.610404 284.278166 
L 460.198463 283.947139 
L 461.962638 283.187674 
L 462.550697 282.608479 
L 463.138755 281.565676 
L 463.726814 280.900586 
L 464.314872 280.021923 
L 466.079048 278.948673 
L 466.667106 278.073008 
L 467.255165 277.463371 
L 468.431282 276.908825 
L 470.783516 276.878148 
L 471.371574 276.614763 
L 471.959633 276.766728 
L 472.547691 276.604693 
L 474.899926 275.667665 
L 476.076043 274.139715 
L 476.664101 273.776015 
L 478.428277 273.354392 
L 479.604394 272.578518 
L 480.780511 270.877654 
L 483.132745 269.918229 
L 483.720803 269.348887 
L 484.89692 268.925094 
L 486.661096 269.022316 
L 487.249154 269.241405 
L 487.837213 269.800191 
L 490.777505 270.42169 
L 491.365564 270.443252 
L 491.953622 270.606626 
L 492.541681 272.010105 
L 493.129739 273.860336 
L 494.893915 273.836184 
L 495.481973 273.68501 
L 496.070032 273.690719 
L 499.010324 272.187589 
L 499.598383 271.579147 
L 501.362558 268.949901 
L 503.126734 267.693477 
L 503.714792 266.527926 
L 504.302851 265.612603 
L 505.478968 264.210068 
L 507.243143 263.890254 
L 507.831202 263.596588 
L 509.595377 263.208042 
L 511.359553 263.100634 
L 511.947611 263.499643 
L 513.123728 265.27147 
L 513.711787 266.118617 
L 515.475962 266.812486 
L 516.064021 267.943184 
L 516.652079 268.498885 
L 517.240138 269.219974 
L 517.828196 270.247109 
L 520.18043 271.287094 
L 521.356547 270.669251 
L 521.944606 269.806985 
L 523.708781 269.24402 
L 524.29684 268.788845 
L 526.061015 268.106526 
L 528.413249 268.26981 
L 530.177425 268.636318 
L 532.529659 268.010546 
L 534.293834 266.61213 
L 536.05801 265.743496 
L 536.646068 265.148179 
L 537.234127 263.974678 
L 537.822185 263.32528 
L 538.410244 262.882426 
L 540.762478 262.230441 
L 541.938595 261.20623 
L 542.526653 260.788478 
L 544.290829 260.302224 
L 545.466946 259.705684 
L 546.055004 259.585048 
L 546.643063 259.656905 
L 548.407238 260.02629 
L 548.995297 259.904595 
L 549.583355 259.932728 
L 550.171414 260.524294 
L 550.759472 261.41021 
L 552.523648 262.706083 
L 553.699765 265.070924 
L 554.287823 266.671441 
L 554.875882 267.832901 
L 557.228116 268.830998 
L 558.404233 271.427629 
L 558.992291 273.214828 
L 560.756467 274.525535 
L 561.932584 276.099156 
L 562.520642 277.386716 
L 563.108701 278.301244 
L 564.872876 279.567133 
L 567.22511 283.699266 
L 569.577344 284.637968 
L 570.165403 285.935993 
L 570.753461 286.369153 
L 571.34152 287.087306 
L 573.105696 287.687619 
L 574.281813 288.793542 
L 575.45793 290.581639 
L 577.222105 292.229205 
L 578.398222 295.583083 
L 578.986281 296.188407 
L 579.574339 296.317684 
L 581.338515 295.614975 
L 583.10269 293.409934 
L 583.690749 291.437192 
L 586.042983 287.879015 
L 586.631041 286.524934 
L 587.807158 284.950775 
L 589.571334 284.323603 
L 590.747451 280.452393 
L 591.335509 278.206291 
L 593.687743 275.974592 
L 594.275802 273.770249 
L 596.039977 268.947953 
L 597.804153 268.036136 
L 600.156387 263.397447 
L 601.920562 261.923463 
L 604.272796 257.16446 
L 606.036972 255.495016 
L 606.62503 254.042531 
L 607.801147 251.670746 
L 608.389206 250.892752 
L 610.153381 249.995783 
L 611.329498 247.499381 
L 611.917557 246.406554 
L 612.505615 245.583802 
L 614.857849 244.899806 
L 615.445908 244.281758 
L 616.622025 242.280961 
L 618.3862 240.600099 
L 619.562317 238.685101 
L 620.150376 238.416936 
L 620.738434 237.431921 
L 622.50261 236.777402 
L 623.090668 236.733067 
L 623.678727 235.94349 
L 624.266785 236.230797 
L 624.854844 235.71088 
L 626.619019 235.362343 
L 627.207078 235.032418 
L 627.795136 234.330981 
L 630.735429 232.252927 
L 631.323487 231.145325 
L 631.911546 230.365458 
L 632.499604 229.853861 
L 633.087663 230.22235 
L 634.851838 230.946858 
L 635.439897 232.020654 
L 636.616014 233.281506 
L 638.968248 234.391973 
L 640.144365 239.8921 
L 640.732423 240.830154 
L 641.320482 242.277818 
L 643.084657 243.225769 
L 644.260774 245.980548 
L 644.848833 248.42677 
L 645.436891 251.387974 
L 647.201067 254.15538 
L 648.377184 259.668626 
L 649.553301 263.230109 
L 651.317476 264.89776 
L 652.493593 267.303553 
L 653.081652 269.229689 
L 653.66971 270.444328 
L 655.433886 271.227883 
L 656.610003 272.612249 
L 657.198061 273.269806 
L 657.78612 273.571927 
L 659.550295 273.831559 
L 660.138354 273.607319 
L 660.726412 273.608885 
L 661.314471 273.183725 
L 661.902529 272.574032 
L 664.842822 270.85936 
L 665.43088 270.142775 
L 666.018939 269.011594 
L 667.783114 268.075951 
L 669.54729 267.70623 
L 670.135349 267.817424 
L 672.487583 267.495131 
L 673.075641 267.241119 
L 674.251758 265.912641 
L 676.015934 265.457196 
L 677.780109 263.874791 
L 678.368168 262.937334 
L 680.132343 262.696864 
L 681.30846 261.960996 
L 684.248753 263.187002 
L 684.836811 263.129338 
L 685.42487 262.575113 
L 686.600987 260.896747 
L 688.365162 260.267188 
L 688.953221 259.439792 
L 690.129338 258.999085 
L 690.717396 258.780803 
L 693.06963 258.440683 
L 694.245747 258.791734 
L 694.833806 259.111653 
L 696.597981 259.421231 
L 697.18604 259.754116 
L 697.774098 259.846416 
L 698.362157 260.074446 
L 698.950215 260.03442 
L 700.714391 260.341162 
L 701.302449 260.784442 
L 701.890508 261.536553 
L 702.478566 261.966427 
L 703.066625 262.574556 
L 704.8308 263.104632 
L 705.418859 263.912539 
L 706.006917 264.213177 
L 707.183034 265.833082 
L 708.94721 266.660649 
L 709.535268 267.453829 
L 710.711385 268.741326 
L 711.299444 269.01902 
L 714.239736 270.055849 
L 715.415853 271.139445 
L 717.180029 271.593018 
L 717.768087 272.006833 
L 718.356146 272.80305 
L 718.944204 273.820565 
L 719.532263 274.151755 
L 721.296438 274.265651 
L 721.884497 274.164701 
L 723.648672 274.432627 
L 725.412848 275.27913 
L 726.000906 275.925526 
L 727.177023 277.674505 
L 727.765082 278.269637 
L 729.529257 278.790956 
L 730.117316 279.281387 
L 730.705374 280.162466 
L 731.293433 281.270266 
L 731.881491 281.983026 
L 733.645667 282.861366 
L 734.233725 283.515972 
L 735.409842 284.250119 
L 735.997901 285.172633 
L 737.762076 286.065007 
L 738.938193 288.219255 
L 740.11431 289.558666 
L 741.878486 290.780907 
L 743.054603 293.290112 
L 744.23072 294.313418 
L 745.994895 295.58007 
L 748.347129 300.115642 
L 750.111305 300.890341 
L 751.87548 303.316111 
L 752.463539 304.330985 
L 754.815773 305.258808 
L 755.99189 307.317638 
L 756.579948 307.928428 
L 758.344124 308.710338 
L 759.520241 309.914943 
L 760.108299 310.070464 
L 760.696358 310.450704 
L 762.460533 310.311087 
L 763.048592 310.029904 
L 763.63665 309.263807 
L 764.224709 307.886474 
L 764.812767 307.000706 
L 766.576943 306.217293 
L 767.165002 306.23212 
L 767.75306 306.02032 
L 768.341119 305.972633 
L 768.929177 305.547705 
L 773.045587 304.758412 
L 774.809762 304.392108 
L 775.397821 303.65832 
L 775.985879 303.824087 
L 776.573938 304.263163 
L 777.161996 304.471647 
L 779.51423 304.732416 
L 780.102289 305.037119 
L 780.690347 304.743574 
L 781.278406 304.174969 
L 784.218698 303.11929 
L 784.806757 302.866618 
L 785.394815 302.158152 
L 787.158991 300.925545 
L 788.335108 298.617304 
L 789.511225 296.235655 
L 791.2754 294.650788 
L 792.451517 290.972425 
L 793.039576 289.466935 
L 793.627634 287.247545 
L 795.39181 284.641979 
L 795.979868 281.770335 
L 796.567927 280.211203 
L 797.155985 277.963742 
L 799.508219 276.178365 
L 800.096278 273.753193 
L 800.684336 272.52315 
L 801.272395 270.529964 
L 801.860453 268.110681 
L 803.624629 265.38396 
L 805.976863 256.54171 
L 807.741038 254.202218 
L 810.093272 245.427157 
L 811.857448 243.169246 
L 813.621623 235.341638 
L 814.209682 231.854932 
L 815.973857 229.598638 
L 816.561916 226.846156 
L 817.149974 225.580328 
L 817.738033 224.793818 
L 818.326091 224.614615 
L 820.090267 224.249175 
L 820.678325 223.60217 
L 821.266384 223.496742 
L 821.854442 222.833923 
L 822.442501 222.396736 
L 824.206676 221.675153 
L 825.382793 219.802373 
L 825.970852 219.393698 
L 826.55891 219.389307 
L 828.911144 220.268624 
L 829.499203 220.710402 
L 830.087261 220.720233 
L 830.67532 221.575433 
L 832.439495 222.2823 
L 833.615612 223.269487 
L 834.791729 225.264161 
L 837.143963 226.318412 
L 837.732022 226.03227 
L 838.32008 225.386405 
L 838.908139 225.623043 
L 840.672314 226.591579 
L 841.260373 227.528784 
L 842.43649 229.988523 
L 844.788724 231.151978 
L 845.376782 231.87482 
L 845.964841 232.801002 
L 845.964841 232.801002 
" clip-path="url(#pa8dbd72d6e)" style="fill: none; stroke: #2e6f95; stroke-width: 2.5; stroke-linecap: square"/>
   </g>
   <g id="line2d_23">
    <path d="M 63.02375 281.22282 
L 883.24775 281.22282 
" clip-path="url(#pa8dbd72d6e)" style="fill: none; stroke: #6b7280; stroke-width: 0.9; stroke-linecap: square"/>
   </g>
   <g id="patch_3">
    <path d="M 63.02375 381.24 
L 63.02375 82.152 
" style="fill: none; stroke: #d7dee5; stroke-width: 0.8; stroke-linejoin: miter; stroke-linecap: square"/>
   </g>
   <g id="patch_4">
    <path d="M 63.02375 381.24 
L 883.24775 381.24 
" style="fill: none; stroke: #d7dee5; stroke-width: 0.8; stroke-linejoin: miter; stroke-linecap: square"/>
   </g>
   <g id="text_14">
    <!-- 2023 -->
    <g style="fill: #17212b" transform="translate(196.468865 116.860509) scale(0.09 -0.09)">
     <use xlink:href="#DejaVuSans-32"/>
     <use xlink:href="#DejaVuSans-30" transform="translate(63.623047 0)"/>
     <use xlink:href="#DejaVuSans-32" transform="translate(127.246094 0)"/>
     <use xlink:href="#DejaVuSans-33" transform="translate(190.869141 0)"/>
    </g>
    <!-- mean +3.19% -->
    <g style="fill: #17212b" transform="translate(175.663396 126.93854) scale(0.09 -0.09)">
     <defs>
      <path id="DejaVuSans-6d" d="M 3328 2828 
Q 3544 3216 3844 3400 
Q 4144 3584 4550 3584 
Q 5097 3584 5394 3201 
Q 5691 2819 5691 2113 
L 5691 0 
L 5113 0 
L 5113 2094 
Q 5113 2597 4934 2840 
Q 4756 3084 4391 3084 
Q 3944 3084 3684 2787 
Q 3425 2491 3425 1978 
L 3425 0 
L 2847 0 
L 2847 2094 
Q 2847 2600 2669 2842 
Q 2491 3084 2119 3084 
Q 1678 3084 1418 2786 
Q 1159 2488 1159 1978 
L 1159 0 
L 581 0 
L 581 3500 
L 1159 3500 
L 1159 2956 
Q 1356 3278 1631 3431 
Q 1906 3584 2284 3584 
Q 2666 3584 2933 3390 
Q 3200 3197 3328 2828 
z
" transform="scale(0.015625)"/>
      <path id="DejaVuSans-2b" d="M 2944 4013 
L 2944 2272 
L 4684 2272 
L 4684 1741 
L 2944 1741 
L 2944 0 
L 2419 0 
L 2419 1741 
L 678 1741 
L 678 2272 
L 2419 2272 
L 2419 4013 
L 2944 4013 
z
" transform="scale(0.015625)"/>
      <path id="DejaVuSans-2e" d="M 684 794 
L 1344 794 
L 1344 0 
L 684 0 
L 684 794 
z
" transform="scale(0.015625)"/>
      <path id="DejaVuSans-39" d="M 703 97 
L 703 672 
Q 941 559 1184 500 
Q 1428 441 1663 441 
Q 2288 441 2617 861 
Q 2947 1281 2994 2138 
Q 2813 1869 2534 1725 
Q 2256 1581 1919 1581 
Q 1219 1581 811 2004 
Q 403 2428 403 3163 
Q 403 3881 828 4315 
Q 1253 4750 1959 4750 
Q 2769 4750 3195 4129 
Q 3622 3509 3622 2328 
Q 3622 1225 3098 567 
Q 2575 -91 1691 -91 
Q 1453 -91 1209 -44 
Q 966 3 703 97 
z
M 1959 2075 
Q 2384 2075 2632 2365 
Q 2881 2656 2881 3163 
Q 2881 3666 2632 3958 
Q 2384 4250 1959 4250 
Q 1534 4250 1286 3958 
Q 1038 3666 1038 3163 
Q 1038 2656 1286 2365 
Q 1534 2075 1959 2075 
z
" transform="scale(0.015625)"/>
     </defs>
     <use xlink:href="#DejaVuSans-6d"/>
     <use xlink:href="#DejaVuSans-65" transform="translate(97.412109 0)"/>
     <use xlink:href="#DejaVuSans-61" transform="translate(158.935547 0)"/>
     <use xlink:href="#DejaVuSans-6e" transform="translate(220.214844 0)"/>
     <use xlink:href="#DejaVuSans-20" transform="translate(283.59375 0)"/>
     <use xlink:href="#DejaVuSans-2b" transform="translate(315.380859 0)"/>
     <use xlink:href="#DejaVuSans-33" transform="translate(399.169922 0)"/>
     <use xlink:href="#DejaVuSans-2e" transform="translate(462.792969 0)"/>
     <use xlink:href="#DejaVuSans-31" transform="translate(494.580078 0)"/>
     <use xlink:href="#DejaVuSans-39" transform="translate(558.203125 0)"/>
     <use xlink:href="#DejaVuSans-25" transform="translate(621.826172 0)"/>
    </g>
   </g>
   <g id="text_15">
    <!-- 2024 -->
    <g style="fill: #17212b" transform="translate(410.52216 116.860509) scale(0.09 -0.09)">
     <use xlink:href="#DejaVuSans-32"/>
     <use xlink:href="#DejaVuSans-30" transform="translate(63.623047 0)"/>
     <use xlink:href="#DejaVuSans-32" transform="translate(127.246094 0)"/>
     <use xlink:href="#DejaVuSans-34" transform="translate(190.869141 0)"/>
    </g>
    <!-- mean +1.39% -->
    <g style="fill: #17212b" transform="translate(389.716691 126.93854) scale(0.09 -0.09)">
     <use xlink:href="#DejaVuSans-6d"/>
     <use xlink:href="#DejaVuSans-65" transform="translate(97.412109 0)"/>
     <use xlink:href="#DejaVuSans-61" transform="translate(158.935547 0)"/>
     <use xlink:href="#DejaVuSans-6e" transform="translate(220.214844 0)"/>
     <use xlink:href="#DejaVuSans-20" transform="translate(283.59375 0)"/>
     <use xlink:href="#DejaVuSans-2b" transform="translate(315.380859 0)"/>
     <use xlink:href="#DejaVuSans-31" transform="translate(399.169922 0)"/>
     <use xlink:href="#DejaVuSans-2e" transform="translate(462.792969 0)"/>
     <use xlink:href="#DejaVuSans-33" transform="translate(494.580078 0)"/>
     <use xlink:href="#DejaVuSans-39" transform="translate(558.203125 0)"/>
     <use xlink:href="#DejaVuSans-25" transform="translate(621.826172 0)"/>
    </g>
   </g>
   <g id="text_16">
    <!-- 2025 -->
    <g style="fill: #17212b" transform="translate(627.515748 116.860509) scale(0.09 -0.09)">
     <use xlink:href="#DejaVuSans-32"/>
     <use xlink:href="#DejaVuSans-30" transform="translate(63.623047 0)"/>
     <use xlink:href="#DejaVuSans-32" transform="translate(127.246094 0)"/>
     <use xlink:href="#DejaVuSans-35" transform="translate(190.869141 0)"/>
    </g>
    <!-- mean +1.66% -->
    <g style="fill: #17212b" transform="translate(606.710279 126.93854) scale(0.09 -0.09)">
     <use xlink:href="#DejaVuSans-6d"/>
     <use xlink:href="#DejaVuSans-65" transform="translate(97.412109 0)"/>
     <use xlink:href="#DejaVuSans-61" transform="translate(158.935547 0)"/>
     <use xlink:href="#DejaVuSans-6e" transform="translate(220.214844 0)"/>
     <use xlink:href="#DejaVuSans-20" transform="translate(283.59375 0)"/>
     <use xlink:href="#DejaVuSans-2b" transform="translate(315.380859 0)"/>
     <use xlink:href="#DejaVuSans-31" transform="translate(399.169922 0)"/>
     <use xlink:href="#DejaVuSans-2e" transform="translate(462.792969 0)"/>
     <use xlink:href="#DejaVuSans-36" transform="translate(494.580078 0)"/>
     <use xlink:href="#DejaVuSans-36" transform="translate(558.203125 0)"/>
     <use xlink:href="#DejaVuSans-25" transform="translate(621.826172 0)"/>
    </g>
   </g>
   <g id="text_17">
    <!-- 2026 -->
    <g style="fill: #17212b" transform="translate(783.93931 116.860509) scale(0.09 -0.09)">
     <use xlink:href="#DejaVuSans-32"/>
     <use xlink:href="#DejaVuSans-30" transform="translate(63.623047 0)"/>
     <use xlink:href="#DejaVuSans-32" transform="translate(127.246094 0)"/>
     <use xlink:href="#DejaVuSans-36" transform="translate(190.869141 0)"/>
    </g>
    <!-- mean +3.31% -->
    <g style="fill: #17212b" transform="translate(763.133841 126.93854) scale(0.09 -0.09)">
     <use xlink:href="#DejaVuSans-6d"/>
     <use xlink:href="#DejaVuSans-65" transform="translate(97.412109 0)"/>
     <use xlink:href="#DejaVuSans-61" transform="translate(158.935547 0)"/>
     <use xlink:href="#DejaVuSans-6e" transform="translate(220.214844 0)"/>
     <use xlink:href="#DejaVuSans-20" transform="translate(283.59375 0)"/>
     <use xlink:href="#DejaVuSans-2b" transform="translate(315.380859 0)"/>
     <use xlink:href="#DejaVuSans-33" transform="translate(399.169922 0)"/>
     <use xlink:href="#DejaVuSans-2e" transform="translate(462.792969 0)"/>
     <use xlink:href="#DejaVuSans-33" transform="translate(494.580078 0)"/>
     <use xlink:href="#DejaVuSans-31" transform="translate(558.203125 0)"/>
     <use xlink:href="#DejaVuSans-25" transform="translate(621.826172 0)"/>
    </g>
   </g>
   <g id="legend_1">
    <g id="line2d_24">
     <path d="M 72.02375 351.982188 
L 82.02375 351.982188 
L 92.02375 351.982188 
" style="fill: none; stroke: #d7dee5; stroke-opacity: 0.65; stroke-width: 0.8; stroke-linecap: square"/>
    </g>
    <g id="text_18">
     <!-- Daily overlapping spread -->
     <g style="fill: #17212b" transform="translate(100.02375 355.482188) scale(0.1 -0.1)">
      <defs>
       <path id="DejaVuSans-44" d="M 1259 4147 
L 1259 519 
L 2022 519 
Q 2988 519 3436 956 
Q 3884 1394 3884 2338 
Q 3884 3275 3436 3711 
Q 2988 4147 2022 4147 
L 1259 4147 
z
M 628 4666 
L 1925 4666 
Q 3281 4666 3915 4102 
Q 4550 3538 4550 2338 
Q 4550 1131 3912 565 
Q 3275 0 1925 0 
L 628 0 
L 628 4666 
z
" transform="scale(0.015625)"/>
       <path id="DejaVuSans-79" d="M 2059 -325 
Q 1816 -950 1584 -1140 
Q 1353 -1331 966 -1331 
L 506 -1331 
L 506 -850 
L 844 -850 
Q 1081 -850 1212 -737 
Q 1344 -625 1503 -206 
L 1606 56 
L 191 3500 
L 800 3500 
L 1894 763 
L 2988 3500 
L 3597 3500 
L 2059 -325 
z
" transform="scale(0.015625)"/>
       <path id="DejaVuSans-76" d="M 191 3500 
L 800 3500 
L 1894 563 
L 2988 3500 
L 3597 3500 
L 2284 0 
L 1503 0 
L 191 3500 
z
" transform="scale(0.015625)"/>
       <path id="DejaVuSans-64" d="M 2906 2969 
L 2906 4863 
L 3481 4863 
L 3481 0 
L 2906 0 
L 2906 525 
Q 2725 213 2448 61 
Q 2172 -91 1784 -91 
Q 1150 -91 751 415 
Q 353 922 353 1747 
Q 353 2572 751 3078 
Q 1150 3584 1784 3584 
Q 2172 3584 2448 3432 
Q 2725 3281 2906 2969 
z
M 947 1747 
Q 947 1113 1208 752 
Q 1469 391 1925 391 
Q 2381 391 2643 752 
Q 2906 1113 2906 1747 
Q 2906 2381 2643 2742 
Q 2381 3103 1925 3103 
Q 1469 3103 1208 2742 
Q 947 2381 947 1747 
z
" transform="scale(0.015625)"/>
      </defs>
      <use xlink:href="#DejaVuSans-44"/>
      <use xlink:href="#DejaVuSans-61" transform="translate(77.001953 0)"/>
      <use xlink:href="#DejaVuSans-69" transform="translate(138.28125 0)"/>
      <use xlink:href="#DejaVuSans-6c" transform="translate(166.064453 0)"/>
      <use xlink:href="#DejaVuSans-79" transform="translate(193.847656 0)"/>
      <use xlink:href="#DejaVuSans-20" transform="translate(253.027344 0)"/>
      <use xlink:href="#DejaVuSans-6f" transform="translate(284.814453 0)"/>
      <use xlink:href="#DejaVuSans-76" transform="translate(345.996094 0)"/>
      <use xlink:href="#DejaVuSans-65" transform="translate(405.175781 0)"/>
      <use xlink:href="#DejaVuSans-72" transform="translate(466.699219 0)"/>
      <use xlink:href="#DejaVuSans-6c" transform="translate(507.8125 0)"/>
      <use xlink:href="#DejaVuSans-61" transform="translate(535.595703 0)"/>
      <use xlink:href="#DejaVuSans-70" transform="translate(596.875 0)"/>
      <use xlink:href="#DejaVuSans-70" transform="translate(660.351562 0)"/>
      <use xlink:href="#DejaVuSans-69" transform="translate(723.828125 0)"/>
      <use xlink:href="#DejaVuSans-6e" transform="translate(751.611328 0)"/>
      <use xlink:href="#DejaVuSans-67" transform="translate(814.990234 0)"/>
      <use xlink:href="#DejaVuSans-20" transform="translate(878.466797 0)"/>
      <use xlink:href="#DejaVuSans-73" transform="translate(910.253906 0)"/>
      <use xlink:href="#DejaVuSans-70" transform="translate(962.353516 0)"/>
      <use xlink:href="#DejaVuSans-72" transform="translate(1025.830078 0)"/>
      <use xlink:href="#DejaVuSans-65" transform="translate(1064.693359 0)"/>
      <use xlink:href="#DejaVuSans-61" transform="translate(1126.216797 0)"/>
      <use xlink:href="#DejaVuSans-64" transform="translate(1187.496094 0)"/>
     </g>
    </g>
    <g id="line2d_25">
     <path d="M 72.02375 366.660313 
L 82.02375 366.660313 
L 92.02375 366.660313 
" style="fill: none; stroke: #2e6f95; stroke-width: 2.5; stroke-linecap: square"/>
    </g>
    <g id="text_19">
     <!-- 63-session mean -->
     <g style="fill: #17212b" transform="translate(100.02375 370.160313) scale(0.1 -0.1)">
      <use xlink:href="#DejaVuSans-36"/>
      <use xlink:href="#DejaVuSans-33" transform="translate(63.623047 0)"/>
      <use xlink:href="#DejaVuSans-2d" transform="translate(127.246094 0)"/>
      <use xlink:href="#DejaVuSans-73" transform="translate(163.330078 0)"/>
      <use xlink:href="#DejaVuSans-65" transform="translate(215.429688 0)"/>
      <use xlink:href="#DejaVuSans-73" transform="translate(276.953125 0)"/>
      <use xlink:href="#DejaVuSans-73" transform="translate(329.052734 0)"/>
      <use xlink:href="#DejaVuSans-69" transform="translate(381.152344 0)"/>
      <use xlink:href="#DejaVuSans-6f" transform="translate(408.935547 0)"/>
      <use xlink:href="#DejaVuSans-6e" transform="translate(470.117188 0)"/>
      <use xlink:href="#DejaVuSans-20" transform="translate(533.496094 0)"/>
      <use xlink:href="#DejaVuSans-6d" transform="translate(565.283203 0)"/>
      <use xlink:href="#DejaVuSans-65" transform="translate(662.695312 0)"/>
      <use xlink:href="#DejaVuSans-61" transform="translate(724.21875 0)"/>
      <use xlink:href="#DejaVuSans-6e" transform="translate(785.498047 0)"/>
     </g>
    </g>
   </g>
  </g>
  <g id="text_20">
   <!-- The 20-session ranking signal varied substantially over time -->
   <g style="fill: #17212b" transform="translate(49.19975 22.989938) scale(0.132 -0.132)">
    <defs>
     <path id="DejaVuSans-54" d="M -19 4666 
L 3928 4666 
L 3928 4134 
L 2272 4134 
L 2272 0 
L 1638 0 
L 1638 4134 
L -19 4134 
L -19 4666 
z
" transform="scale(0.015625)"/>
     <path id="DejaVuSans-6b" d="M 581 4863 
L 1159 4863 
L 1159 1991 
L 2875 3500 
L 3609 3500 
L 1753 1863 
L 3688 0 
L 2938 0 
L 1159 1709 
L 1159 0 
L 581 0 
L 581 4863 
z
" transform="scale(0.015625)"/>
     <path id="DejaVuSans-75" d="M 544 1381 
L 544 3500 
L 1119 3500 
L 1119 1403 
Q 1119 906 1312 657 
Q 1506 409 1894 409 
Q 2359 409 2629 706 
Q 2900 1003 2900 1516 
L 2900 3500 
L 3475 3500 
L 3475 0 
L 2900 0 
L 2900 538 
Q 2691 219 2414 64 
Q 2138 -91 1772 -91 
Q 1169 -91 856 284 
Q 544 659 544 1381 
z
M 1991 3584 
L 1991 3584 
z
" transform="scale(0.015625)"/>
     <path id="DejaVuSans-62" d="M 3116 1747 
Q 3116 2381 2855 2742 
Q 2594 3103 2138 3103 
Q 1681 3103 1420 2742 
Q 1159 2381 1159 1747 
Q 1159 1113 1420 752 
Q 1681 391 2138 391 
Q 2594 391 2855 752 
Q 3116 1113 3116 1747 
z
M 1159 2969 
Q 1341 3281 1617 3432 
Q 1894 3584 2278 3584 
Q 2916 3584 3314 3078 
Q 3713 2572 3713 1747 
Q 3713 922 3314 415 
Q 2916 -91 2278 -91 
Q 1894 -91 1617 61 
Q 1341 213 1159 525 
L 1159 0 
L 581 0 
L 581 4863 
L 1159 4863 
L 1159 2969 
z
" transform="scale(0.015625)"/>
    </defs>
    <use xlink:href="#DejaVuSans-54"/>
    <use xlink:href="#DejaVuSans-68" transform="translate(61.083984 0)"/>
    <use xlink:href="#DejaVuSans-65" transform="translate(124.462891 0)"/>
    <use xlink:href="#DejaVuSans-20" transform="translate(185.986328 0)"/>
    <use xlink:href="#DejaVuSans-32" transform="translate(217.773438 0)"/>
    <use xlink:href="#DejaVuSans-30" transform="translate(281.396484 0)"/>
    <use xlink:href="#DejaVuSans-2d" transform="translate(345.019531 0)"/>
    <use xlink:href="#DejaVuSans-73" transform="translate(381.103516 0)"/>
    <use xlink:href="#DejaVuSans-65" transform="translate(433.203125 0)"/>
    <use xlink:href="#DejaVuSans-73" transform="translate(494.726562 0)"/>
    <use xlink:href="#DejaVuSans-73" transform="translate(546.826172 0)"/>
    <use xlink:href="#DejaVuSans-69" transform="translate(598.925781 0)"/>
    <use xlink:href="#DejaVuSans-6f" transform="translate(626.708984 0)"/>
    <use xlink:href="#DejaVuSans-6e" transform="translate(687.890625 0)"/>
    <use xlink:href="#DejaVuSans-20" transform="translate(751.269531 0)"/>
    <use xlink:href="#DejaVuSans-72" transform="translate(783.056641 0)"/>
    <use xlink:href="#DejaVuSans-61" transform="translate(824.169922 0)"/>
    <use xlink:href="#DejaVuSans-6e" transform="translate(885.449219 0)"/>
    <use xlink:href="#DejaVuSans-6b" transform="translate(948.828125 0)"/>
    <use xlink:href="#DejaVuSans-69" transform="translate(1006.738281 0)"/>
    <use xlink:href="#DejaVuSans-6e" transform="translate(1034.521484 0)"/>
    <use xlink:href="#DejaVuSans-67" transform="translate(1097.900391 0)"/>
    <use xlink:href="#DejaVuSans-20" transform="translate(1161.376953 0)"/>
    <use xlink:href="#DejaVuSans-73" transform="translate(1193.164062 0)"/>
    <use xlink:href="#DejaVuSans-69" transform="translate(1245.263672 0)"/>
    <use xlink:href="#DejaVuSans-67" transform="translate(1273.046875 0)"/>
    <use xlink:href="#DejaVuSans-6e" transform="translate(1336.523438 0)"/>
    <use xlink:href="#DejaVuSans-61" transform="translate(1399.902344 0)"/>
    <use xlink:href="#DejaVuSans-6c" transform="translate(1461.181641 0)"/>
    <use xlink:href="#DejaVuSans-20" transform="translate(1488.964844 0)"/>
    <use xlink:href="#DejaVuSans-76" transform="translate(1520.751953 0)"/>
    <use xlink:href="#DejaVuSans-61" transform="translate(1579.931641 0)"/>
    <use xlink:href="#DejaVuSans-72" transform="translate(1641.210938 0)"/>
    <use xlink:href="#DejaVuSans-69" transform="translate(1682.324219 0)"/>
    <use xlink:href="#DejaVuSans-65" transform="translate(1710.107422 0)"/>
    <use xlink:href="#DejaVuSans-64" transform="translate(1771.630859 0)"/>
    <use xlink:href="#DejaVuSans-20" transform="translate(1835.107422 0)"/>
    <use xlink:href="#DejaVuSans-73" transform="translate(1866.894531 0)"/>
    <use xlink:href="#DejaVuSans-75" transform="translate(1918.994141 0)"/>
    <use xlink:href="#DejaVuSans-62" transform="translate(1982.373047 0)"/>
    <use xlink:href="#DejaVuSans-73" transform="translate(2045.849609 0)"/>
    <use xlink:href="#DejaVuSans-74" transform="translate(2097.949219 0)"/>
    <use xlink:href="#DejaVuSans-61" transform="translate(2137.158203 0)"/>
    <use xlink:href="#DejaVuSans-6e" transform="translate(2198.4375 0)"/>
    <use xlink:href="#DejaVuSans-74" transform="translate(2261.816406 0)"/>
    <use xlink:href="#DejaVuSans-69" transform="translate(2301.025391 0)"/>
    <use xlink:href="#DejaVuSans-61" transform="translate(2328.808594 0)"/>
    <use xlink:href="#DejaVuSans-6c" transform="translate(2390.087891 0)"/>
    <use xlink:href="#DejaVuSans-6c" transform="translate(2417.871094 0)"/>
    <use xlink:href="#DejaVuSans-79" transform="translate(2445.654297 0)"/>
    <use xlink:href="#DejaVuSans-20" transform="translate(2504.833984 0)"/>
    <use xlink:href="#DejaVuSans-6f" transform="translate(2536.621094 0)"/>
    <use xlink:href="#DejaVuSans-76" transform="translate(2597.802734 0)"/>
    <use xlink:href="#DejaVuSans-65" transform="translate(2656.982422 0)"/>
    <use xlink:href="#DejaVuSans-72" transform="translate(2718.505859 0)"/>
    <use xlink:href="#DejaVuSans-20" transform="translate(2759.619141 0)"/>
    <use xlink:href="#DejaVuSans-74" transform="translate(2791.40625 0)"/>
    <use xlink:href="#DejaVuSans-69" transform="translate(2830.615234 0)"/>
    <use xlink:href="#DejaVuSans-6d" transform="translate(2858.398438 0)"/>
    <use xlink:href="#DejaVuSans-65" transform="translate(2955.810547 0)"/>
   </g>
  </g>
  <g id="text_21">
   <!-- Quant + SEC daily decile spread and trailing 63-session mean -->
   <g style="fill: #6b7280" transform="translate(53.80775 41.976) scale(0.11 -0.11)">
    <defs>
     <path id="DejaVuSans-51" d="M 2522 4238 
Q 1834 4238 1429 3725 
Q 1025 3213 1025 2328 
Q 1025 1447 1429 934 
Q 1834 422 2522 422 
Q 3209 422 3611 934 
Q 4013 1447 4013 2328 
Q 4013 3213 3611 3725 
Q 3209 4238 2522 4238 
z
M 3406 84 
L 4238 -825 
L 3475 -825 
L 2784 -78 
Q 2681 -84 2626 -87 
Q 2572 -91 2522 -91 
Q 1538 -91 948 567 
Q 359 1225 359 2328 
Q 359 3434 948 4092 
Q 1538 4750 2522 4750 
Q 3503 4750 4090 4092 
Q 4678 3434 4678 2328 
Q 4678 1516 4351 937 
Q 4025 359 3406 84 
z
" transform="scale(0.015625)"/>
     <path id="DejaVuSans-53" d="M 3425 4513 
L 3425 3897 
Q 3066 4069 2747 4153 
Q 2428 4238 2131 4238 
Q 1616 4238 1336 4038 
Q 1056 3838 1056 3469 
Q 1056 3159 1242 3001 
Q 1428 2844 1947 2747 
L 2328 2669 
Q 3034 2534 3370 2195 
Q 3706 1856 3706 1288 
Q 3706 609 3251 259 
Q 2797 -91 1919 -91 
Q 1588 -91 1214 -16 
Q 841 59 441 206 
L 441 856 
Q 825 641 1194 531 
Q 1563 422 1919 422 
Q 2459 422 2753 634 
Q 3047 847 3047 1241 
Q 3047 1584 2836 1778 
Q 2625 1972 2144 2069 
L 1759 2144 
Q 1053 2284 737 2584 
Q 422 2884 422 3419 
Q 422 4038 858 4394 
Q 1294 4750 2059 4750 
Q 2388 4750 2728 4690 
Q 3069 4631 3425 4513 
z
" transform="scale(0.015625)"/>
     <path id="DejaVuSans-45" d="M 628 4666 
L 3578 4666 
L 3578 4134 
L 1259 4134 
L 1259 2753 
L 3481 2753 
L 3481 2222 
L 1259 2222 
L 1259 531 
L 3634 531 
L 3634 0 
L 628 0 
L 628 4666 
z
" transform="scale(0.015625)"/>
     <path id="DejaVuSans-43" d="M 4122 4306 
L 4122 3641 
Q 3803 3938 3442 4084 
Q 3081 4231 2675 4231 
Q 1875 4231 1450 3742 
Q 1025 3253 1025 2328 
Q 1025 1406 1450 917 
Q 1875 428 2675 428 
Q 3081 428 3442 575 
Q 3803 722 4122 1019 
L 4122 359 
Q 3791 134 3420 21 
Q 3050 -91 2638 -91 
Q 1578 -91 968 557 
Q 359 1206 359 2328 
Q 359 3453 968 4101 
Q 1578 4750 2638 4750 
Q 3056 4750 3426 4639 
Q 3797 4528 4122 4306 
z
" transform="scale(0.015625)"/>
     <path id="DejaVuSans-63" d="M 3122 3366 
L 3122 2828 
Q 2878 2963 2633 3030 
Q 2388 3097 2138 3097 
Q 1578 3097 1268 2742 
Q 959 2388 959 1747 
Q 959 1106 1268 751 
Q 1578 397 2138 397 
Q 2388 397 2633 464 
Q 2878 531 3122 666 
L 3122 134 
Q 2881 22 2623 -34 
Q 2366 -91 2075 -91 
Q 1284 -91 818 406 
Q 353 903 353 1747 
Q 353 2603 823 3093 
Q 1294 3584 2113 3584 
Q 2378 3584 2631 3529 
Q 2884 3475 3122 3366 
z
" transform="scale(0.015625)"/>
    </defs>
    <use xlink:href="#DejaVuSans-51"/>
    <use xlink:href="#DejaVuSans-75" transform="translate(78.710938 0)"/>
    <use xlink:href="#DejaVuSans-61" transform="translate(142.089844 0)"/>
    <use xlink:href="#DejaVuSans-6e" transform="translate(203.369141 0)"/>
    <use xlink:href="#DejaVuSans-74" transform="translate(266.748047 0)"/>
    <use xlink:href="#DejaVuSans-20" transform="translate(305.957031 0)"/>
    <use xlink:href="#DejaVuSans-2b" transform="translate(337.744141 0)"/>
    <use xlink:href="#DejaVuSans-20" transform="translate(421.533203 0)"/>
    <use xlink:href="#DejaVuSans-53" transform="translate(453.320312 0)"/>
    <use xlink:href="#DejaVuSans-45" transform="translate(516.796875 0)"/>
    <use xlink:href="#DejaVuSans-43" transform="translate(579.980469 0)"/>
    <use xlink:href="#DejaVuSans-20" transform="translate(649.804688 0)"/>
    <use xlink:href="#DejaVuSans-64" transform="translate(681.591797 0)"/>
    <use xlink:href="#DejaVuSans-61" transform="translate(745.068359 0)"/>
    <use xlink:href="#DejaVuSans-69" transform="translate(806.347656 0)"/>
    <use xlink:href="#DejaVuSans-6c" transform="translate(834.130859 0)"/>
    <use xlink:href="#DejaVuSans-79" transform="translate(861.914062 0)"/>
    <use xlink:href="#DejaVuSans-20" transform="translate(921.09375 0)"/>
    <use xlink:href="#DejaVuSans-64" transform="translate(952.880859 0)"/>
    <use xlink:href="#DejaVuSans-65" transform="translate(1016.357422 0)"/>
    <use xlink:href="#DejaVuSans-63" transform="translate(1077.880859 0)"/>
    <use xlink:href="#DejaVuSans-69" transform="translate(1132.861328 0)"/>
    <use xlink:href="#DejaVuSans-6c" transform="translate(1160.644531 0)"/>
    <use xlink:href="#DejaVuSans-65" transform="translate(1188.427734 0)"/>
    <use xlink:href="#DejaVuSans-20" transform="translate(1249.951172 0)"/>
    <use xlink:href="#DejaVuSans-73" transform="translate(1281.738281 0)"/>
    <use xlink:href="#DejaVuSans-70" transform="translate(1333.837891 0)"/>
    <use xlink:href="#DejaVuSans-72" transform="translate(1397.314453 0)"/>
    <use xlink:href="#DejaVuSans-65" transform="translate(1436.177734 0)"/>
    <use xlink:href="#DejaVuSans-61" transform="translate(1497.701172 0)"/>
    <use xlink:href="#DejaVuSans-64" transform="translate(1558.980469 0)"/>
    <use xlink:href="#DejaVuSans-20" transform="translate(1622.457031 0)"/>
    <use xlink:href="#DejaVuSans-61" transform="translate(1654.244141 0)"/>
    <use xlink:href="#DejaVuSans-6e" transform="translate(1715.523438 0)"/>
    <use xlink:href="#DejaVuSans-64" transform="translate(1778.902344 0)"/>
    <use xlink:href="#DejaVuSans-20" transform="translate(1842.378906 0)"/>
    <use xlink:href="#DejaVuSans-74" transform="translate(1874.166016 0)"/>
    <use xlink:href="#DejaVuSans-72" transform="translate(1913.375 0)"/>
    <use xlink:href="#DejaVuSans-61" transform="translate(1954.488281 0)"/>
    <use xlink:href="#DejaVuSans-69" transform="translate(2015.767578 0)"/>
    <use xlink:href="#DejaVuSans-6c" transform="translate(2043.550781 0)"/>
    <use xlink:href="#DejaVuSans-69" transform="translate(2071.333984 0)"/>
    <use xlink:href="#DejaVuSans-6e" transform="translate(2099.117188 0)"/>
    <use xlink:href="#DejaVuSans-67" transform="translate(2162.496094 0)"/>
    <use xlink:href="#DejaVuSans-20" transform="translate(2225.972656 0)"/>
    <use xlink:href="#DejaVuSans-36" transform="translate(2257.759766 0)"/>
    <use xlink:href="#DejaVuSans-33" transform="translate(2321.382812 0)"/>
    <use xlink:href="#DejaVuSans-2d" transform="translate(2385.005859 0)"/>
    <use xlink:href="#DejaVuSans-73" transform="translate(2421.089844 0)"/>
    <use xlink:href="#DejaVuSans-65" transform="translate(2473.189453 0)"/>
    <use xlink:href="#DejaVuSans-73" transform="translate(2534.712891 0)"/>
    <use xlink:href="#DejaVuSans-73" transform="translate(2586.8125 0)"/>
    <use xlink:href="#DejaVuSans-69" transform="translate(2638.912109 0)"/>
    <use xlink:href="#DejaVuSans-6f" transform="translate(2666.695312 0)"/>
    <use xlink:href="#DejaVuSans-6e" transform="translate(2727.876953 0)"/>
    <use xlink:href="#DejaVuSans-20" transform="translate(2791.255859 0)"/>
    <use xlink:href="#DejaVuSans-6d" transform="translate(2823.042969 0)"/>
    <use xlink:href="#DejaVuSans-65" transform="translate(2920.455078 0)"/>
    <use xlink:href="#DejaVuSans-61" transform="translate(2981.978516 0)"/>
    <use xlink:href="#DejaVuSans-6e" transform="translate(3043.257812 0)"/>
   </g>
  </g>
  <g id="text_22">
   <!-- Daily observations overlap heavily; the line illustrates regime stability and should not be read as a cumulative return series. -->
   <g style="fill: #6b7280" transform="translate(53.80775 440.1648) scale(0.085 -0.085)">
    <defs>
     <path id="DejaVuSans-3b" d="M 750 3309 
L 1409 3309 
L 1409 2516 
L 750 2516 
L 750 3309 
z
M 750 794 
L 1409 794 
L 1409 256 
L 897 -744 
L 494 -744 
L 750 256 
L 750 794 
z
" transform="scale(0.015625)"/>
    </defs>
    <use xlink:href="#DejaVuSans-44"/>
    <use xlink:href="#DejaVuSans-61" transform="translate(77.001953 0)"/>
    <use xlink:href="#DejaVuSans-69" transform="translate(138.28125 0)"/>
    <use xlink:href="#DejaVuSans-6c" transform="translate(166.064453 0)"/>
    <use xlink:href="#DejaVuSans-79" transform="translate(193.847656 0)"/>
    <use xlink:href="#DejaVuSans-20" transform="translate(253.027344 0)"/>
    <use xlink:href="#DejaVuSans-6f" transform="translate(284.814453 0)"/>
    <use xlink:href="#DejaVuSans-62" transform="translate(345.996094 0)"/>
    <use xlink:href="#DejaVuSans-73" transform="translate(409.472656 0)"/>
    <use xlink:href="#DejaVuSans-65" transform="translate(461.572266 0)"/>
    <use xlink:href="#DejaVuSans-72" transform="translate(523.095703 0)"/>
    <use xlink:href="#DejaVuSans-76" transform="translate(564.208984 0)"/>
    <use xlink:href="#DejaVuSans-61" transform="translate(623.388672 0)"/>
    <use xlink:href="#DejaVuSans-74" transform="translate(684.667969 0)"/>
    <use xlink:href="#DejaVuSans-69" transform="translate(723.876953 0)"/>
    <use xlink:href="#DejaVuSans-6f" transform="translate(751.660156 0)"/>
    <use xlink:href="#DejaVuSans-6e" transform="translate(812.841797 0)"/>
    <use xlink:href="#DejaVuSans-73" transform="translate(876.220703 0)"/>
    <use xlink:href="#DejaVuSans-20" transform="translate(928.320312 0)"/>
    <use xlink:href="#DejaVuSans-6f" transform="translate(960.107422 0)"/>
    <use xlink:href="#DejaVuSans-76" transform="translate(1021.289062 0)"/>
    <use xlink:href="#DejaVuSans-65" transform="translate(1080.46875 0)"/>
    <use xlink:href="#DejaVuSans-72" transform="translate(1141.992188 0)"/>
    <use xlink:href="#DejaVuSans-6c" transform="translate(1183.105469 0)"/>
    <use xlink:href="#DejaVuSans-61" transform="translate(1210.888672 0)"/>
    <use xlink:href="#DejaVuSans-70" transform="translate(1272.167969 0)"/>
    <use xlink:href="#DejaVuSans-20" transform="translate(1335.644531 0)"/>
    <use xlink:href="#DejaVuSans-68" transform="translate(1367.431641 0)"/>
    <use xlink:href="#DejaVuSans-65" transform="translate(1430.810547 0)"/>
    <use xlink:href="#DejaVuSans-61" transform="translate(1492.333984 0)"/>
    <use xlink:href="#DejaVuSans-76" transform="translate(1553.613281 0)"/>
    <use xlink:href="#DejaVuSans-69" transform="translate(1612.792969 0)"/>
    <use xlink:href="#DejaVuSans-6c" transform="translate(1640.576172 0)"/>
    <use xlink:href="#DejaVuSans-79" transform="translate(1668.359375 0)"/>
    <use xlink:href="#DejaVuSans-3b" transform="translate(1727.539062 0)"/>
    <use xlink:href="#DejaVuSans-20" transform="translate(1761.230469 0)"/>
    <use xlink:href="#DejaVuSans-74" transform="translate(1793.017578 0)"/>
    <use xlink:href="#DejaVuSans-68" transform="translate(1832.226562 0)"/>
    <use xlink:href="#DejaVuSans-65" transform="translate(1895.605469 0)"/>
    <use xlink:href="#DejaVuSans-20" transform="translate(1957.128906 0)"/>
    <use xlink:href="#DejaVuSans-6c" transform="translate(1988.916016 0)"/>
    <use xlink:href="#DejaVuSans-69" transform="translate(2016.699219 0)"/>
    <use xlink:href="#DejaVuSans-6e" transform="translate(2044.482422 0)"/>
    <use xlink:href="#DejaVuSans-65" transform="translate(2107.861328 0)"/>
    <use xlink:href="#DejaVuSans-20" transform="translate(2169.384766 0)"/>
    <use xlink:href="#DejaVuSans-69" transform="translate(2201.171875 0)"/>
    <use xlink:href="#DejaVuSans-6c" transform="translate(2228.955078 0)"/>
    <use xlink:href="#DejaVuSans-6c" transform="translate(2256.738281 0)"/>
    <use xlink:href="#DejaVuSans-75" transform="translate(2284.521484 0)"/>
    <use xlink:href="#DejaVuSans-73" transform="translate(2347.900391 0)"/>
    <use xlink:href="#DejaVuSans-74" transform="translate(2400 0)"/>
    <use xlink:href="#DejaVuSans-72" transform="translate(2439.208984 0)"/>
    <use xlink:href="#DejaVuSans-61" transform="translate(2480.322266 0)"/>
    <use xlink:href="#DejaVuSans-74" transform="translate(2541.601562 0)"/>
    <use xlink:href="#DejaVuSans-65" transform="translate(2580.810547 0)"/>
    <use xlink:href="#DejaVuSans-73" transform="translate(2642.333984 0)"/>
    <use xlink:href="#DejaVuSans-20" transform="translate(2694.433594 0)"/>
    <use xlink:href="#DejaVuSans-72" transform="translate(2726.220703 0)"/>
    <use xlink:href="#DejaVuSans-65" transform="translate(2765.083984 0)"/>
    <use xlink:href="#DejaVuSans-67" transform="translate(2826.607422 0)"/>
    <use xlink:href="#DejaVuSans-69" transform="translate(2890.083984 0)"/>
    <use xlink:href="#DejaVuSans-6d" transform="translate(2917.867188 0)"/>
    <use xlink:href="#DejaVuSans-65" transform="translate(3015.279297 0)"/>
    <use xlink:href="#DejaVuSans-20" transform="translate(3076.802734 0)"/>
    <use xlink:href="#DejaVuSans-73" transform="translate(3108.589844 0)"/>
    <use xlink:href="#DejaVuSans-74" transform="translate(3160.689453 0)"/>
    <use xlink:href="#DejaVuSans-61" transform="translate(3199.898438 0)"/>
    <use xlink:href="#DejaVuSans-62" transform="translate(3261.177734 0)"/>
    <use xlink:href="#DejaVuSans-69" transform="translate(3324.654297 0)"/>
    <use xlink:href="#DejaVuSans-6c" transform="translate(3352.4375 0)"/>
    <use xlink:href="#DejaVuSans-69" transform="translate(3380.220703 0)"/>
    <use xlink:href="#DejaVuSans-74" transform="translate(3408.003906 0)"/>
    <use xlink:href="#DejaVuSans-79" transform="translate(3447.212891 0)"/>
    <use xlink:href="#DejaVuSans-20" transform="translate(3506.392578 0)"/>
    <use xlink:href="#DejaVuSans-61" transform="translate(3538.179688 0)"/>
    <use xlink:href="#DejaVuSans-6e" transform="translate(3599.458984 0)"/>
    <use xlink:href="#DejaVuSans-64" transform="translate(3662.837891 0)"/>
    <use xlink:href="#DejaVuSans-20" transform="translate(3726.314453 0)"/>
    <use xlink:href="#DejaVuSans-73" transform="translate(3758.101562 0)"/>
    <use xlink:href="#DejaVuSans-68" transform="translate(3810.201172 0)"/>
    <use xlink:href="#DejaVuSans-6f" transform="translate(3873.580078 0)"/>
    <use xlink:href="#DejaVuSans-75" transform="translate(3934.761719 0)"/>
    <use xlink:href="#DejaVuSans-6c" transform="translate(3998.140625 0)"/>
    <use xlink:href="#DejaVuSans-64" transform="translate(4025.923828 0)"/>
    <use xlink:href="#DejaVuSans-20" transform="translate(4089.400391 0)"/>
    <use xlink:href="#DejaVuSans-6e" transform="translate(4121.1875 0)"/>
    <use xlink:href="#DejaVuSans-6f" transform="translate(4184.566406 0)"/>
    <use xlink:href="#DejaVuSans-74" transform="translate(4245.748047 0)"/>
    <use xlink:href="#DejaVuSans-20" transform="translate(4284.957031 0)"/>
    <use xlink:href="#DejaVuSans-62" transform="translate(4316.744141 0)"/>
    <use xlink:href="#DejaVuSans-65" transform="translate(4380.220703 0)"/>
    <use xlink:href="#DejaVuSans-20" transform="translate(4441.744141 0)"/>
    <use xlink:href="#DejaVuSans-72" transform="translate(4473.53125 0)"/>
    <use xlink:href="#DejaVuSans-65" transform="translate(4512.394531 0)"/>
    <use xlink:href="#DejaVuSans-61" transform="translate(4573.917969 0)"/>
    <use xlink:href="#DejaVuSans-64" transform="translate(4635.197266 0)"/>
    <use xlink:href="#DejaVuSans-20" transform="translate(4698.673828 0)"/>
    <use xlink:href="#DejaVuSans-61" transform="translate(4730.460938 0)"/>
    <use xlink:href="#DejaVuSans-73" transform="translate(4791.740234 0)"/>
    <use xlink:href="#DejaVuSans-20" transform="translate(4843.839844 0)"/>
    <use xlink:href="#DejaVuSans-61" transform="translate(4875.626953 0)"/>
    <use xlink:href="#DejaVuSans-20" transform="translate(4936.90625 0)"/>
    <use xlink:href="#DejaVuSans-63" transform="translate(4968.693359 0)"/>
    <use xlink:href="#DejaVuSans-75" transform="translate(5023.673828 0)"/>
    <use xlink:href="#DejaVuSans-6d" transform="translate(5087.052734 0)"/>
    <use xlink:href="#DejaVuSans-75" transform="translate(5184.464844 0)"/>
    <use xlink:href="#DejaVuSans-6c" transform="translate(5247.84375 0)"/>
    <use xlink:href="#DejaVuSans-61" transform="translate(5275.626953 0)"/>
    <use xlink:href="#DejaVuSans-74" transform="translate(5336.90625 0)"/>
    <use xlink:href="#DejaVuSans-69" transform="translate(5376.115234 0)"/>
    <use xlink:href="#DejaVuSans-76" transform="translate(5403.898438 0)"/>
    <use xlink:href="#DejaVuSans-65" transform="translate(5463.078125 0)"/>
    <use xlink:href="#DejaVuSans-20" transform="translate(5524.601562 0)"/>
    <use xlink:href="#DejaVuSans-72" transform="translate(5556.388672 0)"/>
    <use xlink:href="#DejaVuSans-65" transform="translate(5595.251953 0)"/>
    <use xlink:href="#DejaVuSans-74" transform="translate(5656.775391 0)"/>
    <use xlink:href="#DejaVuSans-75" transform="translate(5695.984375 0)"/>
    <use xlink:href="#DejaVuSans-72" transform="translate(5759.363281 0)"/>
    <use xlink:href="#DejaVuSans-6e" transform="translate(5798.726562 0)"/>
    <use xlink:href="#DejaVuSans-20" transform="translate(5862.105469 0)"/>
    <use xlink:href="#DejaVuSans-73" transform="translate(5893.892578 0)"/>
    <use xlink:href="#DejaVuSans-65" transform="translate(5945.992188 0)"/>
    <use xlink:href="#DejaVuSans-72" transform="translate(6007.515625 0)"/>
    <use xlink:href="#DejaVuSans-69" transform="translate(6048.628906 0)"/>
    <use xlink:href="#DejaVuSans-65" transform="translate(6076.412109 0)"/>
    <use xlink:href="#DejaVuSans-73" transform="translate(6137.935547 0)"/>
    <use xlink:href="#DejaVuSans-2e" transform="translate(6190.035156 0)"/>
   </g>
  </g>
 </g>
 <defs>
  <clipPath id="pa8dbd72d6e">
   <rect x="63.02375" y="82.152" width="820.224" height="299.088"/>
  </clipPath>
 </defs>
</svg>
